<svg width="135" height="159" viewBox="0 0 135 159" fill="none" xmlns="http://www.w3.org/2000/svg">
<path d="M89.5621 18.2C87.2954 18.3333 85.6621 18.6 84.6621 19C83.6621 19.4 82.9621 20.1667 82.5621 21.3C82.2288 22.4333 82.0621 24.2667 82.0621 26.8V76.4C82.0621 78.9333 82.2288 80.7667 82.5621 81.9C82.9621 83.0333 83.6621 83.8 84.6621 84.2C85.7288 84.6 87.3621 84.8667 89.5621 85V87C85.8954 86.8 80.6621 86.7 73.8621 86.7C66.7288 86.7 61.4621 86.8 58.0621 87V85C60.4621 84.8667 62.1954 84.6 63.2621 84.2C64.3954 83.8 65.1621 83.0333 65.5621 81.9C65.9621 80.7667 66.1621 78.9333 66.1621 76.4V24.1L42.0621 87.1H40.4621L13.4621 22.7V70.6C13.4621 74.5333 13.6621 77.4333 14.0621 79.3C14.4621 81.1 15.3288 82.4333 16.6621 83.3C17.9954 84.1 20.1621 84.6667 23.1621 85V87C20.5621 86.8 16.9621 86.7 12.3621 86.7C8.69544 86.7 5.79544 86.8 3.66211 87V85C5.86211 84.6667 7.46211 84.1 8.46211 83.3C9.52878 82.5 10.2288 81.2333 10.5621 79.5C10.9621 77.7667 11.1621 75.2 11.1621 71.8V26.8C11.1621 24.2667 10.9621 22.4333 10.5621 21.3C10.2288 20.1667 9.52878 19.4 8.46211 19C7.46211 18.6 5.86211 18.3333 3.66211 18.2V16.2C5.79544 16.4 8.69544 16.5 12.3621 16.5C18.4954 16.5 23.7621 16.4 28.1621 16.2L48.3621 64.9L66.7621 16.5H73.8621C80.6621 16.5 85.8954 16.4 89.5621 16.2V18.2Z" fill="#093F28"/>
<path d="M131.71 87.2C129.443 87.3333 127.81 87.6 126.81 88C125.81 88.4 125.11 89.1667 124.71 90.3C124.376 91.4333 124.21 93.2667 124.21 95.8V145.4C124.21 147.933 124.376 149.767 124.71 150.9C125.11 152.033 125.81 152.8 126.81 153.2C127.81 153.6 129.443 153.867 131.71 154V156C128.443 155.8 123.376 155.7 116.51 155.7C109.776 155.7 104.543 155.8 100.81 156V154C103.01 153.867 104.61 153.6 105.61 153.2C106.676 152.8 107.376 152.033 107.71 150.9C108.11 149.767 108.31 147.933 108.31 145.4V121.4H81.8098V145.4C81.8098 147.933 81.9764 149.767 82.3098 150.9C82.7098 152.033 83.4098 152.8 84.4098 153.2C85.4098 153.6 87.0431 153.867 89.3098 154V156C85.7098 155.8 80.6764 155.7 74.2098 155.7C67.0764 155.7 61.8098 155.8 58.4098 156V154C60.6098 153.867 62.2098 153.6 63.2098 153.2C64.2764 152.8 64.9764 152.033 65.3098 150.9C65.7098 149.767 65.9098 147.933 65.9098 145.4V95.8C65.9098 93.2667 65.7098 91.4333 65.3098 90.3C64.9764 89.1667 64.2764 88.4 63.2098 88C62.2098 87.6 60.6098 87.3333 58.4098 87.2V85.2C61.8098 85.4 67.0764 85.5 74.2098 85.5C80.6764 85.5 85.7098 85.4 89.3098 85.2V87.2C87.0431 87.3333 85.4098 87.6 84.4098 88C83.4098 88.4 82.7098 89.1667 82.3098 90.3C81.9764 91.4333 81.8098 93.2667 81.8098 95.8V119.4H108.31V95.8C108.31 93.2667 108.11 91.4333 107.71 90.3C107.376 89.1667 106.676 88.4 105.61 88C104.61 87.6 103.01 87.3333 100.81 87.2V85.2C104.543 85.4 109.776 85.5 116.51 85.5C123.376 85.5 128.443 85.4 131.71 85.2V87.2Z" fill="#093F28"/>
</svg>
