<svg width="344" height="137" viewBox="0 0 344 137" fill="none" xmlns="http://www.w3.org/2000/svg">
<path d="M342.206 61.3049C342.043 61.3917 341.882 61.4784 341.721 61.5675C341.687 61.5538 341.671 61.5287 341.635 61.5172C330.433 57.5787 317.936 59.8779 306.938 63.3438C295.487 66.9536 284.638 72.2963 273.064 75.5316C269.511 76.5248 265.862 77.2555 262.182 77.7486C249.339 76.6413 236.627 74.1686 224.099 71.004C224.702 70.9743 225.303 70.9036 225.906 70.8579C228.41 71.3853 231.109 70.9081 233.672 70.0359C252.779 73.7051 274.864 68.44 285.282 50.6377C287.954 46.0736 289.622 40.982 289.88 35.6712C289.882 35.6141 289.862 35.573 289.857 35.5205C290.109 35.1917 290.388 34.8767 290.612 34.5365C291.149 33.7282 290.2 32.6985 289.388 33.3172C289.286 33.3949 289.193 33.4885 289.094 33.5684C284.566 33.2442 279.764 35.0319 275.782 37.0389C271.421 39.2376 267.458 42.1441 263.691 45.2448C256.033 51.5533 249.203 59.0331 240.562 64.0448C238.2 65.4147 235.714 66.586 233.122 67.4353C232.353 67.6865 231.567 67.8829 230.78 68.0655C230.617 68.045 230.454 68.029 230.291 68.0084C229.978 67.9673 229.774 68.1135 229.681 68.319C228.75 68.5244 227.821 68.7277 226.905 68.9857C226.54 69.0245 226.18 69.0884 225.813 69.1226C223.021 69.3738 220.263 69.4012 217.518 69.2779C213.885 68.2893 210.264 67.2641 206.667 66.1887C187.878 60.5788 169.369 54.0351 150.582 48.4207C150.793 48.318 151.006 48.2175 151.216 48.117C151.627 47.9207 152.037 47.7175 152.436 47.4983C153.054 47.4755 153.675 47.4572 154.296 47.4275C155.205 47.3841 156.102 47.2791 157.002 47.1741C157.27 47.1581 157.535 47.1421 157.802 47.133C159.123 47.0964 160.445 47.1147 161.766 47.1649C164.431 47.2654 167.089 47.5143 169.734 47.8476C174.928 48.5029 180.08 49.4687 185.235 50.366C195.3 52.115 205.779 53.6401 215.932 51.688C220.888 50.7359 227 48.8774 230.162 44.61C230.413 44.2698 230.214 43.8954 229.908 43.7515C229.901 43.3451 229.702 42.9615 229.237 42.8131C223.943 41.1281 218.214 40.2947 212.718 39.5984C207.103 38.886 201.441 38.523 195.783 38.4887C184.655 38.4225 173.537 39.6463 162.697 42.1852C157.217 43.4684 151.833 45.142 146.602 47.2266C142.693 46.0918 138.777 44.9868 134.834 43.9639C128.522 42.3268 122.143 40.8655 115.715 39.644C120.81 39.2559 125.882 38.4704 130.868 37.427C140.73 35.3607 150.364 32.13 159.493 27.8375C164.689 25.3945 169.7 22.5747 174.516 19.4375C175.456 18.8234 174.815 17.5562 173.94 17.3507C157.41 13.4715 141.041 20.5266 127.276 29.2371C123.208 31.8103 119.255 34.5616 115.305 37.3129C115.174 37.4042 115.09 37.5115 115.015 37.6188C112.395 37.8563 109.764 38.0366 107.133 38.1759C92.8284 36.0023 78.3447 35.2237 63.9131 36.7603C63.6298 36.79 63.3466 36.8311 63.0656 36.8631C63.4508 36.6439 63.8316 36.4201 64.21 36.1918C69.563 34.4885 74.7867 32.3446 79.8268 29.8787C88.8375 25.4744 97.3745 19.981 105.069 13.5217C109.415 9.87315 113.494 5.91633 117.29 1.69238C117.746 1.18551 117.343 0.221983 116.665 0.196867C116.185 0.178602 115.729 0.219703 115.258 0.221986C114.924 -0.0474333 114.478 -0.1068 114.095 0.242533C95.9219 1.02568 84.2438 17.4123 71.3124 28.3489C67.4689 31.6002 63.2809 34.4177 58.6599 36.411C56.2078 37.1553 53.7444 37.854 51.2787 38.5138C51.1314 38.5526 51.0544 38.6531 51.0113 38.7673C34.8234 42.0734 19.0456 48.4618 6.1619 58.8322C4.0996 60.4921 2.10984 62.2456 0.185779 64.0676C-0.326397 64.5516 0.32626 65.4238 0.865631 64.9444C16.938 50.7359 37.4998 42.7857 58.5081 39.8518C65.4043 38.8883 72.3255 38.4819 79.2422 38.5161C80.5838 39.1691 81.9344 39.7993 83.1922 40.6258C83.9129 41.0984 84.595 41.6281 85.2749 42.1624C85.0098 42.4158 84.833 42.7697 84.8511 43.2241C85.5378 59.9875 90.8137 76.7691 100.332 90.5803C103.033 94.5006 105.945 98.2748 109.155 101.789C109.796 102.492 110.816 102.015 110.779 101.088C110.351 90.4159 108.264 79.8401 104.613 69.8099C102.782 64.7777 100.547 59.8939 97.9298 55.227C95.6862 51.2291 93.1162 47.3727 89.923 44.0757C88.0466 42.1373 85.6806 40.0322 83.0789 38.6006C92.8579 38.8791 102.616 39.9911 112.273 41.7195C114.614 43.5118 116.907 45.3658 119.142 47.2905C119.133 47.391 119.115 47.4869 119.135 47.601C123.595 72.2415 136.558 94.2312 151.543 113.837C155.905 119.545 160.458 125.105 165.061 130.617C165.834 131.544 167.373 130.918 167.214 129.687C165.378 115.431 160.984 101.517 154.557 88.6921C148.171 75.9495 139.731 64.2411 129.587 54.268C125.089 49.8454 120.28 45.8293 115.131 42.2446C119.718 43.1214 124.28 44.1191 128.81 45.2219C134.015 46.4891 139.178 47.9047 144.32 49.3888C144.347 49.4893 144.411 49.5851 144.533 49.6536C147.16 51.1446 149.95 52.3113 152.651 53.6653C155.395 55.042 158.095 56.5147 160.735 58.0856C162.527 59.1541 164.281 60.2797 166.017 61.4351C169.553 74.1206 175.388 86.1669 182.887 96.9505C186.663 102.38 190.89 107.488 195.515 112.202C197.824 114.556 200.224 116.817 202.713 118.977C205.151 121.093 207.671 123.315 210.4 125.046C212.687 126.495 216.319 127.18 217.824 124.237C219.225 121.5 217.06 118.031 215.923 115.572C213.26 109.814 210.126 104.271 206.647 98.9757C199.635 88.3017 191.066 78.7007 181.308 70.5063C177.154 67.0175 172.766 63.7708 168.209 60.7866C168.062 60.2934 167.629 60.1016 167.182 60.1176C162.142 56.8823 156.884 53.9918 151.463 51.5031C168.125 56.5718 184.58 62.362 201.219 67.4993C202.216 67.8075 203.22 68.0998 204.22 68.4034C204.249 68.4308 204.263 68.4696 204.308 68.4879C206.11 69.1866 207.975 69.7003 209.87 70.0976C214.996 71.5908 220.156 72.9927 225.341 74.2804C226.443 78.6916 228.26 82.943 230.574 86.9158C230.418 87.0117 230.295 87.1601 230.336 87.3907C231.016 91.2584 232.478 95.0942 234.057 98.6743C235.626 102.225 237.514 105.659 239.832 108.773C244.317 114.801 250.347 119.31 257.681 121.073C261.112 121.897 264.765 122.061 268.228 121.338C269.962 120.975 271.668 120.408 273.25 119.607C274.621 118.913 276.276 118.045 276.994 116.6C277.622 116.328 277.79 115.579 277.341 115.102C277.32 113.819 276.545 112.648 275.621 111.75C274.107 110.284 272.276 109.084 270.576 107.848C267.061 105.293 263.446 102.871 259.752 100.583C251.388 95.4002 242.604 90.9274 233.473 87.2856C233.255 87.1989 233.051 87.176 232.859 87.1897C230.25 83.2512 228.24 78.961 226.509 74.5658C240.217 77.9153 254.125 80.3835 268.217 81.1301C271.299 81.8288 274.347 82.6827 277.388 83.5708C282.229 85.7011 286.827 88.3565 291.059 91.5644C291.052 91.626 291.027 91.6763 291.029 91.7425C291.528 105.777 297.631 119.445 307.496 129.336C310.313 132.16 313.424 134.656 316.792 136.784C317.687 137.35 318.9 136.752 318.761 135.612C316.57 117.721 307.124 101.373 293.094 90.5712C293.073 90.5552 293.055 90.5392 293.035 90.5255C291.04 88.9935 288.951 87.5802 286.78 86.2856C291.124 87.4774 295.505 88.5026 299.999 89.0003C305.81 89.6442 311.756 89.4478 317.372 87.7103C322.564 86.1052 327.088 83.032 330.909 79.1871C335.253 74.8147 338.707 69.682 342.093 64.5494C342.099 64.5379 342.099 64.5265 342.106 64.5174C342.578 64.1909 343.06 63.8941 343.525 63.5493C344.681 62.6748 343.527 60.5971 342.206 61.3049ZM250.909 59.5925C258.517 53.2132 265.157 45.6626 273.651 40.3975C276.02 38.9294 278.524 37.6736 281.144 36.7283C283.138 36.0091 285.155 35.6164 287.201 35.2374C285.676 36.7124 284.251 38.3266 282.741 39.781C280.509 41.9364 278.218 44.0278 275.859 46.0393C271.263 49.9573 266.408 53.5785 261.273 56.7476C255.544 60.2843 249.432 63.2137 243.068 65.3782C245.813 63.6406 248.421 61.6794 250.909 59.5925ZM242.162 67.8166C254.336 64.1087 265.409 57.4189 275.236 49.3682C277.96 47.1375 280.595 44.795 283.152 42.3702C284.495 41.0961 285.946 39.7993 287.312 38.4294C286.077 46.3407 281.649 53.4666 275.603 58.6655C267.979 65.2229 258.157 68.2893 248.262 68.8898C245.017 69.0861 241.749 69.029 238.49 68.8213C239.721 68.5199 240.947 68.1865 242.162 67.8166ZM223.014 47.7677C220.727 48.7312 218.305 49.3545 215.871 49.8112C210.946 50.7336 205.881 50.8364 200.9 50.3934C190.72 49.4893 180.798 46.8019 170.684 45.4411C169.292 45.2539 167.896 45.0918 166.498 44.9593C172.435 44.8954 178.378 44.7744 184.318 44.8064C193.389 44.8543 202.461 45.1192 211.522 45.5804C216.186 45.8178 220.843 46.1215 225.498 46.4868C224.709 46.9617 223.893 47.3978 223.014 47.7677ZM177.519 41.6875C188.372 40.4523 199.361 40.434 210.214 41.6875C213.321 42.046 216.417 42.4935 219.497 43.046C221.636 43.4296 223.755 43.9136 225.879 44.3703C208.227 43.3063 190.559 42.8793 172.877 43.3063C170.498 43.3634 168.132 43.4524 165.766 43.5734C169.652 42.788 173.566 42.1373 177.519 41.6875ZM160.161 18.8416C162.131 18.6476 164.102 18.6042 166.067 18.6841C165.859 18.7777 165.65 18.8736 165.449 18.9558C164.424 19.3759 163.398 19.7937 162.369 20.2093C160.168 21.0974 157.963 21.9833 155.758 22.8555C151.418 24.5725 147.056 26.2347 142.677 27.8489C136.418 30.1572 130.052 32.203 123.754 34.4132C134.856 26.9448 146.67 20.1796 160.161 18.8416ZM143.278 29.8536C147.763 28.2896 152.225 26.6616 156.669 24.9835C158.89 24.1433 161.104 23.2871 163.311 22.4057C164.34 21.9947 165.369 21.5815 166.396 21.1637C167.164 20.8509 168.019 20.5883 168.766 20.1796C154.507 28.712 138.686 34.2853 122.274 36.6827C129.365 34.7419 136.361 32.2647 143.278 29.8536ZM69.2366 32.7304C69.2592 32.7145 69.2796 32.6962 69.3 32.6802C69.7034 32.4428 70.1023 32.2076 70.4966 31.9952C72.2054 31.066 73.9096 30.1207 75.5957 29.1503C78.8909 27.253 82.1498 25.2872 85.3656 23.2597C91.9038 19.1362 98.3218 14.862 104.491 10.1951C106.224 8.88223 107.942 7.55112 109.646 6.19945C110.469 5.54645 111.287 4.88888 112.103 4.22675C112.379 4.00299 112.658 3.75869 112.939 3.51439C100.642 16.2936 85.7123 26.2712 69.2366 32.7304ZM111.917 2.3431C111.051 3.03491 110.129 3.67421 109.327 4.31351C107.861 5.48252 106.383 6.63554 104.894 7.77487C101.798 10.1426 98.664 12.4646 95.4822 14.7159C89.1593 19.1887 82.7186 23.44 76.0399 27.358C75.5753 27.632 75.1039 27.8923 74.6371 28.164C83.3441 20.2412 91.0199 10.912 101.671 5.63549C104.892 4.04181 108.359 2.8591 111.917 2.3431ZM88.3253 44.8475C91.4256 48.012 93.9547 51.7314 96.119 55.5946C101.116 64.5242 104.753 74.2622 106.861 84.2878C107.475 87.2126 107.938 90.1671 108.287 93.133C107.786 91.6877 107.287 90.2401 106.773 88.7994C105.397 84.9499 103.958 81.1255 102.465 77.324C99.4459 69.6455 96.2391 62.0378 92.8034 54.5397C91.8221 52.3958 90.8227 50.261 89.8052 48.133C89.2975 47.0713 88.7944 45.8658 88.2029 44.7333C88.2414 44.7721 88.2868 44.8087 88.3253 44.8475ZM87.9491 47.9116C88.8375 49.8363 89.7236 51.7633 90.5916 53.6995C92.2618 57.428 93.8868 61.177 95.4573 64.9489C98.6323 72.568 101.567 80.283 104.332 88.0619C105.121 90.2835 105.893 92.5142 106.648 94.7472C106.857 95.3637 107.061 95.9824 107.267 96.6012C98.0204 85.1075 91.659 71.1433 88.944 56.6426C88.3774 53.6105 87.9854 50.5532 87.7451 47.48C87.8109 47.6261 87.8856 47.7723 87.9491 47.9116ZM140.039 69.5976C148.384 80.8264 154.974 93.4572 159.409 106.75C161.016 111.568 162.298 116.486 163.311 121.463C163.094 120.986 162.876 120.509 162.675 120.038C161.467 117.221 160.229 114.417 158.958 111.627C156.472 106.184 153.832 100.821 151.076 95.5121C145.533 84.8266 139.482 74.4106 132.941 64.3142C131.074 61.4328 129.172 58.5719 127.214 55.7521C126.591 54.8548 125.972 53.9141 125.342 52.978C130.661 58.1198 135.613 63.6452 140.039 69.5976ZM125.213 55.622C126.881 58.1016 128.527 60.5971 130.145 63.1109C133.458 68.2596 136.644 73.4904 139.704 78.7944C145.714 89.215 151.187 99.9301 156.198 110.871C157.567 113.862 158.897 116.869 160.189 119.897C160.508 120.646 160.816 121.397 161.129 122.148C147.305 105.371 134.532 87.4637 126.811 66.965C124.869 61.8118 123.326 56.5239 122.149 51.1469C123.11 52.6789 124.218 54.1425 125.213 55.622ZM175.268 68.1683C184.635 75.6389 192.988 84.37 200.166 93.9869C203.794 98.8501 207.098 103.958 210.019 109.282C211.445 111.88 212.786 114.527 214.044 117.207C214.142 117.417 214.273 117.684 214.416 117.984C214.019 117.436 213.625 116.89 213.246 116.346C211.776 114.232 210.287 112.129 208.782 110.04C205.813 105.924 202.776 101.857 199.671 97.841C193.412 89.7447 186.869 81.895 180.016 74.3033C177.29 71.2849 174.495 68.3326 171.635 65.4444C172.852 66.3462 174.085 67.223 175.268 68.1683ZM187.583 85.676C193.929 93.4024 200.07 101.289 205.924 109.401C207.608 111.737 209.271 114.086 210.912 116.454C212.474 118.707 213.888 121.214 215.662 123.306C215.388 123.874 214.781 124.201 213.623 124.071C212.045 123.895 210.695 122.632 209.482 121.703C208.238 120.748 207.014 119.769 205.811 118.764C203.404 116.755 201.079 114.643 198.847 112.44C194.448 108.099 190.405 103.389 186.733 98.4118C179.13 88.103 173.396 76.6344 169.403 64.4786C175.477 71.536 181.671 78.4747 187.583 85.676ZM273.284 112.981C273.645 113.271 274.13 113.659 274.472 114.097C273.155 113.855 271.795 113.721 270.538 113.444C268.342 112.963 266.182 112.335 264.058 111.586C259.913 110.125 255.936 108.236 252.188 105.93C245.876 102.047 240.351 97.0487 235.791 91.2242C249.092 96.8135 262.01 103.949 273.284 112.981ZM238.792 97.8866C245.153 104.67 252.931 110.058 261.581 113.431C264.002 114.374 266.492 115.127 269.017 115.735C270.358 116.059 271.888 116.486 273.404 116.707C273.361 116.732 273.316 116.76 273.275 116.785C271.924 117.602 270.426 118.235 268.908 118.652C265.815 119.502 262.549 119.536 259.403 118.984C252.623 117.794 246.653 113.871 242.277 108.604C239.73 105.538 237.67 102.099 235.957 98.5008C234.635 95.7221 233.616 92.8316 232.498 89.9798C234.384 92.8042 236.512 95.4573 238.792 97.8866ZM295.104 102.706C294.601 100.738 294.259 98.7383 293.987 96.729C295.126 99.115 296.445 101.435 297.685 103.743C299.475 107.072 301.266 110.399 303.056 113.728C305.869 118.956 308.62 124.221 311.38 129.48C303.53 122.395 297.742 113.011 295.104 102.706ZM311.688 118.31C313.683 123.077 315.061 128.064 315.883 133.16C315.822 133.117 315.765 133.064 315.704 133.018C315.686 132.971 315.688 132.929 315.661 132.882C311.938 126.199 308.16 119.545 304.486 112.835C302.671 109.517 300.856 106.2 299.04 102.885C297.336 99.768 295.686 96.5167 293.624 93.617C301.495 100.259 307.7 108.778 311.688 118.31ZM317.964 84.8494C306.87 89.046 294.576 86.0687 283.564 83.1507C281.329 82.5594 279.1 81.9931 276.867 81.452C276.783 81.4201 276.7 81.3881 276.618 81.3561C297.279 81.4269 318.263 77.6642 336.633 67.8692C336.735 67.8144 336.828 67.7527 336.928 67.6979C331.974 74.8558 326.258 81.7123 317.964 84.8494ZM327.387 68.8007C322.242 70.9972 316.928 72.7918 311.516 74.18C300.64 76.9701 289.395 78.2852 278.182 78.3948C275.757 78.4176 273.339 78.3697 270.923 78.2829C276.407 76.9929 281.756 75.1732 287.034 73.2028C298.154 69.0496 309.155 64.2822 321.016 62.7525C326.847 62.0013 332.527 62.1976 338.195 63.4648C334.652 65.3622 331.09 67.2184 327.387 68.8007Z" fill="#365C45"/>
</svg>
