<svg width="344" height="137" viewBox="0 0 344 137" fill="none" xmlns="http://www.w3.org/2000/svg">
<path d="M1.7941 61.3049C1.95727 61.3917 2.11822 61.4784 2.27913 61.5675C2.31312 61.5538 2.32897 61.5287 2.36523 61.5172C13.5674 57.5787 26.0636 59.8779 37.0617 63.3438C48.5132 66.9536 59.3617 72.2963 70.9356 75.5316C74.4891 76.5248 78.1378 77.2555 81.8182 77.7486C94.6611 76.6413 107.373 74.1686 119.901 71.004C119.298 70.9743 118.697 70.9036 118.094 70.8579C115.59 71.3853 112.891 70.9081 110.328 70.0359C91.2209 73.7051 69.1362 68.44 58.7181 50.6377C56.0462 46.0736 54.3783 40.982 54.1199 35.6712C54.1176 35.6141 54.138 35.573 54.1425 35.5205C53.891 35.1917 53.6123 34.8767 53.3879 34.5365C52.8508 33.7282 53.8003 32.6985 54.6116 33.3172C54.7136 33.3949 54.8066 33.4885 54.9063 33.5684C59.4343 33.2442 64.2365 35.0319 68.2183 37.0389C72.5786 39.2376 76.5423 42.1441 80.3089 45.2448C87.9666 51.5533 94.7971 59.0331 103.438 64.0448C105.8 65.4147 108.286 66.586 110.878 67.4353C111.647 67.6865 112.433 67.8829 113.22 68.0655C113.383 68.045 113.546 68.029 113.709 68.0084C114.022 67.9673 114.226 68.1135 114.319 68.319C115.25 68.5244 116.179 68.7277 117.095 68.9857C117.46 69.0245 117.82 69.0884 118.187 69.1226C120.979 69.3738 123.737 69.4012 126.482 69.2779C130.115 68.2893 133.736 67.2641 137.333 66.1887C156.122 60.5788 174.631 54.0351 193.418 48.4207C193.207 48.318 192.994 48.2175 192.784 48.117C192.373 47.9207 191.963 47.7175 191.564 47.4983C190.946 47.4755 190.325 47.4572 189.704 47.4275C188.795 47.3841 187.898 47.2791 186.998 47.1741C186.73 47.1581 186.465 47.1421 186.198 47.133C184.877 47.0964 183.555 47.1147 182.234 47.1649C179.569 47.2654 176.911 47.5143 174.266 47.8476C169.072 48.5029 163.92 49.4687 158.765 50.366C148.7 52.115 138.221 53.6401 128.068 51.688C123.112 50.7359 117 48.8774 113.838 44.61C113.587 44.2698 113.786 43.8954 114.092 43.7515C114.099 43.3451 114.298 42.9615 114.763 42.8131C120.057 41.1281 125.786 40.2947 131.282 39.5984C136.897 38.886 142.559 38.523 148.217 38.4887C159.345 38.4225 170.463 39.6463 181.303 42.1852C186.783 43.4684 192.167 45.142 197.398 47.2266C201.307 46.0918 205.223 44.9868 209.166 43.9639C215.478 42.3268 221.857 40.8655 228.285 39.644C223.19 39.2559 218.118 38.4704 213.132 37.427C203.27 35.3607 193.636 32.13 184.507 27.8375C179.311 25.3945 174.3 22.5747 169.484 19.4375C168.544 18.8234 169.185 17.5562 170.06 17.3507C186.59 13.4715 202.959 20.5266 216.724 29.2371C220.792 31.8103 224.745 34.5616 228.695 37.3129C228.826 37.4042 228.91 37.5115 228.985 37.6188C231.605 37.8563 234.236 38.0366 236.867 38.1759C251.172 36.0023 265.655 35.2237 280.087 36.7603C280.37 36.79 280.653 36.8311 280.934 36.8631C280.549 36.6439 280.168 36.4201 279.79 36.1918C274.437 34.4885 269.213 32.3446 264.173 29.8787C255.162 25.4744 246.625 19.981 238.931 13.5217C234.585 9.87315 230.506 5.91633 226.71 1.69238C226.254 1.18551 226.657 0.221983 227.335 0.196867C227.815 0.178602 228.271 0.219703 228.742 0.221986C229.076 -0.0474333 229.522 -0.1068 229.905 0.242533C248.078 1.02568 259.756 17.4123 272.688 28.3489C276.531 31.6002 280.719 34.4177 285.34 36.411C287.792 37.1553 290.256 37.854 292.721 38.5138C292.869 38.5526 292.946 38.6531 292.989 38.7673C309.177 42.0734 324.954 48.4618 337.838 58.8322C339.9 60.4921 341.89 62.2456 343.814 64.0676C344.326 64.5516 343.674 65.4238 343.134 64.9444C327.062 50.7359 306.5 42.7857 285.492 39.8518C278.596 38.8883 271.674 38.4819 264.758 38.5161C263.416 39.1691 262.066 39.7993 260.808 40.6258C260.087 41.0984 259.405 41.6281 258.725 42.1624C258.99 42.4158 259.167 42.7697 259.149 43.2241C258.462 59.9875 253.186 76.7691 243.668 90.5803C240.967 94.5006 238.055 98.2748 234.845 101.789C234.204 102.492 233.184 102.015 233.221 101.088C233.649 90.4159 235.736 79.8401 239.387 69.8099C241.218 64.7777 243.453 59.8939 246.07 55.227C248.314 51.2291 250.884 47.3727 254.077 44.0757C255.953 42.1373 258.319 40.0322 260.921 38.6006C251.142 38.8791 241.384 39.9911 231.727 41.7195C229.386 43.5118 227.093 45.3658 224.858 47.2905C224.867 47.391 224.885 47.4869 224.865 47.601C220.405 72.2415 207.442 94.2312 192.457 113.837C188.095 119.545 183.542 125.105 178.939 130.617C178.166 131.544 176.627 130.918 176.786 129.687C178.622 115.431 183.016 101.517 189.443 88.6921C195.829 75.9495 204.269 64.2411 214.413 54.268C218.911 49.8454 223.72 45.8293 228.869 42.2446C224.282 43.1214 219.72 44.1191 215.19 45.2219C209.985 46.4891 204.822 47.9047 199.68 49.3888C199.653 49.4893 199.589 49.5851 199.467 49.6536C196.84 51.1446 194.05 52.3113 191.349 53.6653C188.605 55.042 185.905 56.5147 183.265 58.0856C181.473 59.1541 179.719 60.2797 177.983 61.4351C174.447 74.1206 168.612 86.1669 161.113 96.9505C157.337 102.38 153.11 107.488 148.485 112.202C146.176 114.556 143.776 116.817 141.287 118.977C138.849 121.093 136.329 123.315 133.6 125.046C131.313 126.495 127.681 127.18 126.176 124.237C124.775 121.5 126.94 118.031 128.077 115.572C130.74 109.814 133.874 104.271 137.353 98.9757C144.365 88.3017 152.934 78.7007 162.692 70.5063C166.846 67.0175 171.234 63.7708 175.791 60.7866C175.938 60.2934 176.371 60.1016 176.818 60.1176C181.858 56.8823 187.116 53.9918 192.537 51.5031C175.875 56.5718 159.42 62.362 142.781 67.4993C141.784 67.8075 140.78 68.0998 139.78 68.4034C139.751 68.4308 139.737 68.4696 139.692 68.4879C137.89 69.1866 136.025 69.7003 134.13 70.0976C129.004 71.5908 123.844 72.9927 118.659 74.2804C117.557 78.6916 115.74 82.943 113.426 86.9158C113.582 87.0117 113.705 87.1601 113.664 87.3907C112.984 91.2584 111.522 95.0942 109.943 98.6743C108.374 102.225 106.486 105.659 104.168 108.773C99.6831 114.801 93.6526 119.31 86.319 121.073C82.8878 121.897 79.2346 122.061 75.7718 121.338C74.0381 120.975 72.3316 120.408 70.7497 119.607C69.3786 118.913 67.7242 118.045 67.0058 116.6C66.3781 116.328 66.2104 115.579 66.6591 115.102C66.6795 113.819 67.4546 112.648 68.3792 111.75C69.8931 110.284 71.7242 109.084 73.4239 107.848C76.9389 105.293 80.5536 102.871 84.2476 100.583C92.6124 95.4002 101.396 90.9274 110.527 87.2856C110.745 87.1989 110.949 87.176 111.141 87.1897C113.75 83.2512 115.76 78.961 117.491 74.5658C103.783 77.9153 89.8748 80.3835 75.7831 81.1301C72.701 81.8288 69.6529 82.6827 66.6116 83.5708C61.7708 85.7011 57.1725 88.3565 52.9414 91.5644C52.9482 91.626 52.9732 91.6763 52.9709 91.7425C52.4723 105.777 46.3693 119.445 36.5042 129.336C33.6873 132.16 30.5757 134.656 27.208 136.784C26.3129 137.35 25.1004 136.752 25.2386 135.612C27.4301 117.721 36.8759 101.373 50.9064 90.5712C50.9268 90.5552 50.9449 90.5392 50.9653 90.5255C52.9596 88.9935 55.049 87.5802 57.2201 86.2856C52.8757 87.4774 48.495 88.5026 44.001 89.0003C38.1903 89.6442 32.2437 89.4478 26.6278 87.7103C21.4358 86.1052 16.9124 83.032 13.0915 79.1871C8.74704 74.8147 5.29326 69.682 1.90746 64.5494C1.90066 64.5379 1.90063 64.5265 1.89383 64.5174C1.42245 64.1909 0.939719 63.8941 0.475135 63.5493C-0.68066 62.6748 0.472871 60.5971 1.7941 61.3049ZM93.0906 59.5925C85.4827 53.2132 78.8426 45.6626 70.3486 40.3975C67.9803 38.9294 65.4761 37.6736 62.8563 36.7283C60.862 36.0091 58.845 35.6164 56.7986 35.2374C58.3238 36.7124 59.7493 38.3266 61.2586 39.781C63.4909 41.9364 65.7821 44.0278 68.1413 46.0393C72.7372 49.9573 77.5916 53.5785 82.7269 56.7476C88.4561 60.2843 94.5682 63.2137 100.932 65.3782C98.1874 63.6406 95.5789 61.6794 93.0906 59.5925ZM101.838 67.8166C89.664 64.1087 78.591 57.4189 68.7645 49.3682C66.0404 47.1375 63.4048 44.795 60.8484 42.3702C59.5045 41.0961 58.0541 39.7993 56.6876 38.4294C57.9227 46.3407 62.351 53.4666 68.3974 58.6655C76.0211 65.2229 85.843 68.2893 95.7376 68.8898C98.9829 69.0861 102.251 69.029 105.51 68.8213C104.279 68.5199 103.053 68.1865 101.838 67.8166ZM120.986 47.7677C123.273 48.7312 125.695 49.3545 128.129 49.8112C133.054 50.7336 138.119 50.8364 143.1 50.3934C153.28 49.4893 163.202 46.8019 173.316 45.4411C174.708 45.2539 176.104 45.0918 177.502 44.9593C171.565 44.8954 165.622 44.7744 159.682 44.8064C150.611 44.8543 141.539 45.1192 132.478 45.5804C127.814 45.8178 123.157 46.1215 118.502 46.4868C119.291 46.9617 120.107 47.3978 120.986 47.7677ZM166.481 41.6875C155.628 40.4523 144.639 40.434 133.786 41.6875C130.679 42.046 127.583 42.4935 124.503 43.046C122.364 43.4296 120.245 43.9136 118.121 44.3703C135.773 43.3063 153.441 42.8793 171.123 43.3063C173.502 43.3634 175.868 43.4524 178.234 43.5734C174.348 42.788 170.434 42.1373 166.481 41.6875ZM183.839 18.8416C181.869 18.6476 179.898 18.6042 177.933 18.6841C178.141 18.7777 178.35 18.8736 178.551 18.9558C179.576 19.3759 180.602 19.7937 181.631 20.2093C183.832 21.0974 186.037 21.9833 188.242 22.8555C192.582 24.5725 196.944 26.2347 201.323 27.8489C207.582 30.1572 213.948 32.203 220.246 34.4132C209.144 26.9448 197.33 20.1796 183.839 18.8416ZM200.722 29.8536C196.237 28.2896 191.775 26.6616 187.331 24.9835C185.11 24.1433 182.896 23.2871 180.689 22.4057C179.66 21.9947 178.631 21.5815 177.604 21.1637C176.836 20.8509 175.981 20.5883 175.234 20.1796C189.493 28.712 205.314 34.2853 221.726 36.6827C214.635 34.7419 207.639 32.2647 200.722 29.8536ZM274.763 32.7304C274.741 32.7145 274.72 32.6962 274.7 32.6802C274.297 32.4428 273.898 32.2076 273.503 31.9952C271.795 31.066 270.09 30.1207 268.404 29.1503C265.109 27.253 261.85 25.2872 258.634 23.2597C252.096 19.1362 245.678 14.862 239.509 10.1951C237.776 8.88223 236.058 7.55112 234.354 6.19945C233.531 5.54645 232.713 4.88888 231.897 4.22675C231.621 4.00299 231.342 3.75869 231.061 3.51439C243.358 16.2936 258.288 26.2712 274.763 32.7304ZM232.083 2.3431C232.949 3.03491 233.871 3.67421 234.673 4.31351C236.139 5.48252 237.617 6.63554 239.106 7.77487C242.202 10.1426 245.336 12.4646 248.518 14.7159C254.841 19.1887 261.281 23.44 267.96 27.358C268.425 27.632 268.896 27.8923 269.363 28.164C260.656 20.2412 252.98 10.912 242.329 5.63549C239.108 4.04181 235.641 2.8591 232.083 2.3431ZM255.675 44.8475C252.574 48.012 250.045 51.7314 247.881 55.5946C242.884 64.5242 239.247 74.2622 237.139 84.2878C236.525 87.2126 236.062 90.1671 235.713 93.133C236.214 91.6877 236.713 90.2401 237.227 88.7994C238.603 84.9499 240.042 81.1255 241.535 77.324C244.554 69.6455 247.761 62.0378 251.197 54.5397C252.178 52.3958 253.177 50.261 254.195 48.133C254.702 47.0713 255.206 45.8658 255.797 44.7333C255.759 44.7721 255.713 44.8087 255.675 44.8475ZM256.051 47.9116C255.163 49.8363 254.276 51.7633 253.408 53.6995C251.738 57.428 250.113 61.177 248.543 64.9489C245.368 72.568 242.433 80.283 239.668 88.0619C238.879 90.2835 238.107 92.5142 237.352 94.7472C237.143 95.3637 236.939 95.9824 236.733 96.6012C245.98 85.1075 252.341 71.1433 255.056 56.6426C255.623 53.6105 256.015 50.5532 256.255 47.48C256.189 47.6261 256.114 47.7723 256.051 47.9116ZM203.961 69.5976C195.616 80.8264 189.026 93.4572 184.591 106.75C182.984 111.568 181.702 116.486 180.689 121.463C180.906 120.986 181.124 120.509 181.325 120.038C182.533 117.221 183.771 114.417 185.042 111.627C187.528 106.184 190.168 100.821 192.924 95.5121C198.467 84.8266 204.518 74.4106 211.059 64.3142C212.926 61.4328 214.828 58.5719 216.786 55.7521C217.409 54.8548 218.028 53.9141 218.658 52.978C213.339 58.1198 208.387 63.6452 203.961 69.5976ZM218.787 55.622C217.119 58.1016 215.473 60.5971 213.855 63.1109C210.542 68.2596 207.356 73.4904 204.296 78.7944C198.286 89.215 192.813 99.9301 187.802 110.871C186.433 113.862 185.103 116.869 183.811 119.897C183.492 120.646 183.184 121.397 182.871 122.148C196.695 105.371 209.468 87.4637 217.189 66.965C219.131 61.8118 220.674 56.5239 221.851 51.1469C220.89 52.6789 219.782 54.1425 218.787 55.622ZM168.732 68.1683C159.365 75.6389 151.012 84.37 143.834 93.9869C140.206 98.8501 136.902 103.958 133.981 109.282C132.555 111.88 131.214 114.527 129.956 117.207C129.858 117.417 129.727 117.684 129.584 117.984C129.981 117.436 130.375 116.89 130.754 116.346C132.224 114.232 133.713 112.129 135.218 110.04C138.187 105.924 141.224 101.857 144.329 97.841C150.588 89.7447 157.131 81.895 163.984 74.3033C166.71 71.2849 169.505 68.3326 172.365 65.4444C171.148 66.3462 169.915 67.223 168.732 68.1683ZM156.417 85.676C150.071 93.4024 143.93 101.289 138.076 109.401C136.392 111.737 134.729 114.086 133.088 116.454C131.526 118.707 130.112 121.214 128.338 123.306C128.612 123.874 129.219 124.201 130.377 124.071C131.955 123.895 133.305 122.632 134.518 121.703C135.762 120.748 136.986 119.769 138.189 118.764C140.596 116.755 142.921 114.643 145.153 112.44C149.552 108.099 153.595 103.389 157.267 98.4118C164.87 88.103 170.604 76.6344 174.597 64.4786C168.523 71.536 162.329 78.4747 156.417 85.676ZM70.7158 112.981C70.3554 113.271 69.8704 113.659 69.5282 114.097C70.8449 113.855 72.2046 113.721 73.4624 113.444C75.6584 112.963 77.8182 112.335 79.9417 111.586C84.0867 110.125 88.064 108.236 91.8124 105.93C98.124 102.047 103.649 97.0487 108.209 91.2242C94.9081 96.8135 81.9904 103.949 70.7158 112.981ZM105.208 97.8866C98.8469 104.67 91.0691 110.058 82.4188 113.431C79.9984 114.374 77.5078 115.127 74.9831 115.735C73.6415 116.059 72.1118 116.486 70.5956 116.707C70.6387 116.732 70.684 116.76 70.7248 116.785C72.0755 117.602 73.5735 118.235 75.0919 118.652C78.1854 119.502 81.4511 119.536 84.5966 118.984C91.3773 117.794 97.3466 113.871 101.723 108.604C104.27 105.538 106.33 102.099 108.043 98.5008C109.365 95.7221 110.384 92.8316 111.502 89.9798C109.616 92.8042 107.488 95.4573 105.208 97.8866ZM48.8961 102.706C49.3993 100.738 49.7415 98.7383 50.0134 96.729C48.8735 99.115 47.5546 101.435 46.3149 103.743C44.5246 107.072 42.7342 110.399 40.9438 113.728C38.1314 118.956 35.3802 124.221 32.6199 129.48C40.4702 122.395 46.2582 113.011 48.8961 102.706ZM32.3116 118.31C30.3173 123.077 28.9395 128.064 28.1168 133.16C28.178 133.117 28.2346 133.064 28.2958 133.018C28.3139 132.971 28.3117 132.929 28.3389 132.882C32.0624 126.199 35.8402 119.545 39.5138 112.835C41.3291 109.517 43.1444 106.2 44.9596 102.885C46.6639 99.768 48.3137 96.5167 50.376 93.617C42.5053 100.259 36.3003 108.778 32.3116 118.31ZM26.0364 84.8494C37.1298 89.046 49.4242 86.0687 60.436 83.1507C62.6705 82.5594 64.9005 81.9931 67.1327 81.452C67.2166 81.4201 67.3005 81.3881 67.3821 81.3561C46.7205 81.4269 25.7372 77.6642 7.36688 67.8692C7.2649 67.8144 7.17197 67.7527 7.07226 67.6979C12.0263 74.8558 17.7419 81.7123 26.0364 84.8494ZM16.6132 68.8007C21.7576 70.9972 27.072 72.7918 32.4838 74.18C43.3596 76.9701 54.6049 78.2852 65.8183 78.3948C68.2432 78.4176 70.6614 78.3697 73.0772 78.2829C67.5928 76.9929 62.2444 75.1732 56.9663 73.2028C45.8457 69.0496 34.8453 64.2822 22.9837 62.7525C17.1526 62.0013 11.4734 62.1976 5.80544 63.4648C9.34761 65.3622 12.9101 67.2184 16.6132 68.8007Z" fill="#365C45"/>
</svg>
