<svg width="1024" height="176" viewBox="0 0 1024 176" fill="none" xmlns="http://www.w3.org/2000/svg">
<path d="M1021.48 46.9961C1013.84 51.7457 1006.22 56.4099 998.164 60.4395C990.253 64.4008 982.094 67.8699 973.756 70.8238C965.435 73.7692 956.94 76.1824 948.332 78.1346C940.583 79.8905 932.777 81.4898 925.19 83.8802C924.925 83.9627 924.666 84.0595 924.404 84.1449C940.753 72.887 955.924 59.8391 968.978 44.9329C971.272 42.3148 973.423 39.6113 975.483 36.8082C979.661 32.6164 983.073 27.5338 985.916 22.4456C989.596 15.8661 992.199 8.74317 993.779 1.37545C994.041 0.157458 992.552 -0.306434 991.71 0.205806C969.174 13.857 950.563 33.8059 938.101 56.9848C934.592 63.5073 931.61 70.3031 929.151 77.2894C923.377 81.5496 917.441 85.5849 911.342 89.3669C898.178 97.5314 884.327 104.549 870.036 110.511C870.662 110.013 871.291 109.512 871.917 109.014C875.041 106.53 878.104 103.971 881.109 101.342C887.122 96.0801 892.904 90.5451 898.303 84.6486C908.718 73.274 917.649 60.4197 923.659 46.1709C926.98 38.2937 929.37 30.0181 930.531 21.5434C930.722 20.1604 928.966 19.5941 928.13 20.5645C909.032 42.7644 891.59 66.262 875.958 91.026C871.598 97.9299 867.398 104.933 863.334 112.016C863.064 112.492 863.115 112.91 863.323 113.246C853.974 116.886 844.455 120.084 834.802 122.808C817.998 127.549 800.846 130.867 783.538 132.919C786.287 132.082 788.962 130.981 791.478 129.794C797.17 127.108 802.457 123.63 807.386 119.729C817.631 111.618 826.259 101.752 835.579 92.6453C840.946 87.4005 846.618 82.4772 852.813 78.2256C853.912 77.4715 853.052 75.7584 851.829 75.9263C826.191 79.4807 802.517 93.6498 786.572 113.943C782.05 119.7 778.194 125.969 775.081 132.594C775.015 132.734 775.01 132.859 774.987 132.99C774.628 133.081 774.272 133.169 773.914 133.266C773.601 133.348 773.436 133.673 773.453 133.963C765.399 134.683 757.32 135.161 749.23 135.346C732.135 135.736 715.035 134.953 698.028 133.226C705.382 131.846 712.397 128.704 718.754 124.822C725.917 120.449 732.311 114.831 737.576 108.294C748.885 94.2474 754.796 76.8938 765.032 62.1584C767.704 58.3109 770.653 54.6171 774.008 51.3416C777.064 48.3592 780.445 45.872 783.934 43.456C784.224 43.4019 784.509 43.3307 784.802 43.2795C785.28 43.1941 785.419 42.7901 785.323 42.44C785.761 41.8936 785.109 40.9915 784.389 41.2846C783.755 41.5436 783.146 41.8566 782.534 42.1611C775.328 43.1713 768.478 46.6973 762.628 50.855C755.761 55.7355 750.046 62.0844 745.2 68.9342C734.668 83.8148 727.61 101.006 715.558 114.831C709.537 121.738 702.337 127.432 693.785 130.821C692.573 131.029 691.341 131.114 690.12 131.277C689.394 131.373 688.666 131.447 687.937 131.519C687.559 131.556 687.18 131.573 686.802 131.61C686.557 131.635 686.332 131.701 686.119 131.795C674.357 130.303 662.644 128.422 651.027 126.086C639.932 123.855 628.921 121.234 617.982 118.343C615.464 117.389 612.928 116.484 610.358 115.673C608.867 115.204 607.35 114.814 605.839 114.407C609.806 114.535 613.782 114.478 617.738 114.327C625.689 114.028 633.606 113.183 641.432 111.749C649.178 110.329 656.827 108.385 664.314 105.944C671.07 103.738 677.795 101.265 684.078 97.9156C690.527 94.4779 696.455 90.0214 700.863 84.1534C701.15 83.8916 701.455 83.6526 701.731 83.3794C702.616 82.5171 701.828 81.1796 700.812 81.4073C700.353 81.2308 699.821 81.3048 699.448 81.8256C699.263 82.0846 699.061 82.3264 698.871 82.5825C692.86 86.6264 686.497 89.9389 679.539 92.0818C671.824 94.458 663.788 95.6048 655.746 96.1085C637.872 97.2326 619.858 95.4028 602.063 97.8957C597.467 98.5389 592.914 99.4808 588.463 100.798C584.459 101.982 580.114 103.485 576.684 105.981C569.633 103.587 562.649 100.926 555.543 98.738C551.67 97.5457 547.86 96.1655 544.049 94.791C543.605 94.6316 543.329 95.2861 543.77 95.4711C551.499 98.6953 559.197 101.891 567.083 104.723C574.968 107.554 582.902 110.241 590.893 112.768C591.758 113.041 592.629 113.291 593.494 113.562C594.562 117.227 596.497 120.659 598.463 123.912C600.578 127.409 602.971 130.739 605.597 133.872C610.805 140.082 617.003 145.594 623.833 149.965C630.911 154.495 638.631 157.916 646.767 160.033C656.304 162.515 666.13 163.448 675.914 164.353C681.463 164.868 687.012 165.375 692.53 166.163C698.168 166.968 703.64 168.221 709.133 169.695C710.934 170.178 712.135 167.586 710.274 166.929C710.174 166.894 710.075 166.866 709.975 166.832C710.043 166.382 709.91 165.921 709.434 165.639C708.606 165.15 707.738 164.712 706.893 164.245C706.62 164.003 706.364 163.747 706.071 163.519C704.366 162.205 702.639 160.916 700.88 159.669C697.505 157.273 694.059 154.979 690.527 152.822C683.62 148.599 676.506 144.726 669.26 141.117C657.223 135.118 644.909 129.564 632.513 124.299C634.636 124.805 636.756 125.329 638.885 125.81C661.819 130.998 685.114 134.683 708.558 136.507C717.408 141.132 726.646 145.107 735.726 149.236C744.904 153.411 754.104 157.557 763.572 161.038C781.242 167.535 800.141 171.57 818.983 168.724C828.775 167.245 838.604 163.983 846.396 157.745C847.193 157.108 846.402 155.6 845.448 156.149C844.771 156.539 844.082 156.911 843.397 157.284C840.016 158.132 836.632 158.682 833.098 158.787C828.718 158.918 824.296 158.593 819.947 158.095C811.242 157.099 802.679 155.136 794.25 152.785C777.46 148.104 761.119 141.846 744.01 138.334C742.983 138.124 741.944 137.976 740.914 137.788C767.465 137.771 793.974 135.05 819.862 129.145C823.507 128.676 827.161 128.263 830.838 128.072C835.79 127.816 840.753 127.941 845.693 128.306C855.69 129.043 865.574 130.625 875.437 132.369C893.442 135.554 911.638 139.02 930.011 137.563C939.914 136.778 949.718 134.444 958.631 129.982C959.86 129.367 959.746 127.828 958.608 127.207C930.224 111.766 896.86 115.255 866.086 119.105C860.312 119.828 854.535 120.545 848.749 121.168C867.332 115.104 885.397 107.372 902.429 97.8246C902.631 97.964 902.899 97.9867 903.155 97.7676C903.249 97.6851 903.351 97.6139 903.448 97.5343C920.344 107.008 940.867 107.879 959.274 102.711C977.948 97.466 994.613 86.4244 1008.8 73.4249C1016.26 66.5865 1023.74 58.604 1023.61 47.847C1023.59 46.7371 1022.21 46.5464 1021.48 46.9961ZM983.659 21.2703C980.515 27.033 976.457 32.013 972.305 37.0216C963.468 46.7855 954.541 56.3644 944.561 64.9985C942.617 66.6775 940.637 68.3138 938.636 69.9217C941.508 67.1328 944.239 64.159 946.966 61.3018C951.121 56.9478 955.193 52.5141 959.14 47.9694C967.031 38.8913 974.558 29.4889 981.599 19.7364C984.08 16.2987 986.494 12.8098 988.873 9.29809C987.475 13.4273 985.748 17.4399 983.659 21.2703ZM975.475 14.9071C979.652 11.4096 984.043 8.21664 988.588 5.2428C976.149 23.9083 962.322 41.7485 947.188 58.2967C944.903 60.7953 942.603 63.2797 940.272 65.7327C938.204 67.9069 936.041 70.0127 934.054 72.2666C942.851 50.0809 957.154 30.2401 975.475 14.9071ZM924.123 32.1468C925.053 30.4081 926.123 28.6579 926.721 26.7769C926.772 26.6147 926.778 26.4581 926.761 26.3044C926.846 26.2048 926.929 26.1024 927.014 26.0028C921.32 54.6712 902.677 78.6952 881.294 97.9384C878.078 100.833 874.783 103.636 871.47 106.416C871.248 106.604 871.018 106.783 870.793 106.971C877.984 97.5115 885.454 88.2656 892.683 78.8318C900.816 68.2171 908.676 57.3861 915.887 46.1225C917.819 43.1031 919.7 40.0524 921.473 36.9362C922.378 35.3483 923.26 33.7547 924.123 32.1468ZM914.51 41.1281C916.385 38.7633 918.289 36.4212 920.213 34.0962C920.187 34.1446 920.161 34.1987 920.133 34.247C918.494 37.1953 916.809 40.1207 915.07 43.012C911.647 48.7036 907.976 54.2272 904.157 59.6598C896.493 70.5563 888.317 81.0828 880.403 91.7943C877.13 96.2252 873.903 100.687 870.713 105.178C883.795 82.8358 898.434 61.4242 914.51 41.1281ZM766.011 56.9421C760.803 63.6666 756.686 71.134 752.747 78.6468C748.473 86.8029 744.372 95.1211 739.096 102.694C734.167 109.768 728.154 115.935 721.076 120.875C719.804 121.763 718.504 122.583 717.186 123.368C722.687 118.818 727.203 113.189 731.091 107.218C735.928 99.7882 739.802 91.8143 744.144 84.0965C748.37 76.5865 753.248 69.529 759.022 63.1232C761.922 59.9074 765.021 56.9763 768.245 54.1931C767.477 55.1066 766.723 56.0229 766.011 56.9421ZM729.073 99.6544C738.444 84.2445 746.264 67.2523 760.126 55.2062C763.626 52.164 767.369 49.4634 771.538 47.4088C772.394 46.9876 773.265 46.6205 774.139 46.2647C769.227 49.8504 764.665 54.0251 760.493 58.3536C754.782 64.2785 749.762 70.8409 745.473 77.8614C736.705 92.2127 730.695 108.821 718.117 120.471C714.927 123.428 711.392 126.052 707.516 128.041C705.291 129.182 702.949 130.042 700.558 130.739C712.787 123.599 721.828 111.572 729.073 99.6544ZM578.935 106.749C578.867 106.726 578.802 106.703 578.733 106.681C581.889 105.571 584.974 104.233 588.181 103.251C592.265 102.005 596.463 101.131 600.683 100.502C609.323 99.2161 618.065 99.0084 626.784 99.0739C639.61 99.1706 652.635 99.7512 665.382 98.1148C659.79 99.8138 654.144 101.313 648.426 102.551C633.7 105.744 618.691 107.329 603.637 107.756C599.317 107.879 594.991 107.793 590.674 107.608C587.091 107.455 583.443 106.991 579.846 107.039C579.544 106.942 579.24 106.849 578.935 106.749ZM585.418 108.824C586.781 108.923 588.141 109.006 589.476 109.091C593.358 109.344 597.242 109.478 601.132 109.538C608.668 109.652 616.195 109.441 623.702 108.718C638.964 107.247 654.07 104.185 668.717 99.6657C672.758 98.4193 676.753 97.0249 680.709 95.5223C683.051 94.6344 685.487 93.7608 687.846 92.7534C680.977 97.3379 673.028 100.514 665.359 103.16C650.934 108.138 635.749 111.052 620.541 112.145C612.604 112.717 604.684 112.54 596.747 112.329C592.959 111.191 589.186 110.019 585.418 108.824ZM700.8 164.41C694.485 163.11 687.994 162.421 681.665 161.812C672.038 160.884 662.357 160.224 652.857 158.332C636.392 155.053 621.32 147.111 609.664 134.968C606.539 131.712 603.679 128.215 601.132 124.49C598.896 121.217 597.109 117.708 595.105 114.31C597.72 116.797 600.7 118.861 603.699 120.861C606.929 123.015 610.247 125.044 613.614 126.974C620.674 131.018 628.079 134.458 635.544 137.683C650.834 144.282 666.574 149.769 682.007 156.012C686.361 157.774 690.686 159.606 694.958 161.559C696.93 162.464 698.865 163.434 700.8 164.41ZM643.202 132.221C657.997 138.755 672.727 145.574 686.702 153.747C688.893 155.03 691.068 156.348 693.225 157.688C690.959 156.721 688.691 155.773 686.44 154.84C678.708 151.641 670.868 148.744 663.011 145.867C647.852 140.312 632.655 134.717 618.298 127.273C614.254 125.175 610.259 122.995 606.389 120.588C603.961 119.08 601.625 117.432 599.26 115.83C600.191 116.029 601.132 116.188 602.055 116.402C604.303 116.925 606.525 117.543 608.731 118.226C612.738 119.467 616.673 120.921 620.566 122.48C628.193 125.534 635.694 128.903 643.202 132.221ZM794.99 166.257C775.425 164.009 757.036 156.234 739.181 148.34C732.4 145.343 725.621 142.241 718.78 139.319C721.398 139.788 724.036 140.195 726.623 140.759C730.96 141.704 735.263 142.779 739.523 144.029C747.77 146.442 755.897 149.225 764.059 151.911C780.203 157.222 796.689 162.168 813.755 163.181C819.566 163.525 825.494 163.465 831.299 162.674C828.032 163.832 824.697 164.794 821.268 165.452C812.619 167.111 803.729 167.262 794.99 166.257ZM741.059 140.301C749.978 141.863 758.726 144.245 767.391 146.849C784.25 151.911 801.094 157.774 818.65 159.9C823.186 160.449 827.767 160.782 832.338 160.594C826.951 161.305 821.535 161.655 816.057 161.416C807.52 161.046 799.054 159.635 790.747 157.666C774.122 153.724 758.177 147.455 741.859 142.472C737.42 141.115 732.955 139.797 728.453 138.661H728.45C732.681 138.992 736.882 139.569 741.059 140.301ZM831.666 83.7351C834.438 82.6793 837.261 81.7744 840.115 80.9889C839.859 81.117 839.6 81.2422 839.347 81.3703C836.843 82.6366 834.418 84.0623 832.07 85.5962C827.136 88.8233 822.639 92.5655 818.319 96.5667C809.569 104.677 801.561 113.593 792.562 121.445C790.013 123.67 787.372 125.784 784.614 127.748C782.781 129.051 780.878 130.244 778.985 131.456C789.691 109.592 808.945 92.3891 831.666 83.7351ZM791.404 124.672C796.023 120.995 800.422 117.028 804.668 112.93C813.066 104.825 821.41 96.6948 831.046 90.0328C833.718 88.1859 836.487 86.4812 839.375 84.9957C839.925 84.714 840.488 84.4579 841.049 84.2047C825.135 98.2059 812.329 115.89 793.445 126.24C790.496 127.856 787.431 129.262 784.261 130.377C783.971 130.48 783.675 130.562 783.385 130.659C786.196 128.818 788.863 126.695 791.404 124.672ZM933.804 121.225C939.885 122.526 945.779 124.504 951.425 127.071C936.858 124.091 921.966 122.256 907.15 121.316C896.288 120.628 885.389 120.528 874.509 120.921C894.296 118.55 914.114 117.011 933.804 121.225ZM855.585 123.721C863.619 122.97 871.681 122.52 879.748 122.369C895.984 122.062 912.256 122.981 928.352 125.113C936.49 126.191 944.53 127.7 952.555 129.376C937.609 135.366 921.061 135.676 905.156 134.026C886.043 132.039 867.347 127.11 848.166 125.659C846.02 125.497 843.84 125.372 841.643 125.298C846.288 124.717 850.926 124.157 855.585 123.721ZM915.247 90.1922C925.346 85.5706 936.798 83.4875 947.435 81.208C964.618 77.5256 981.286 71.9194 997.097 64.2245C1004.27 60.7355 1011.36 56.8396 1018.06 52.4458C1009.84 63.7634 998.693 72.6223 986.067 78.6611C970.793 85.9662 953.895 89.9446 937.122 91.8001C932.304 92.3322 927.458 92.6823 922.614 92.8559C918.645 92.9981 914.678 92.9241 910.708 92.944C912.224 92.0277 913.75 91.137 915.247 90.1922ZM1008.14 70.6758C1001.41 76.9394 994.2 82.7134 986.442 87.6594C970.87 97.5855 952.623 103.801 934.003 102.867C924.359 102.383 914.891 100.053 906.325 95.602C907.296 95.0386 908.243 94.4324 909.205 93.8547C917.412 94.8877 925.967 94.5605 934.168 93.8832C943.11 93.1461 951.983 91.7175 960.697 89.5831C976.639 85.6816 992.208 79.3583 1005.28 69.27C1010.98 64.8647 1016.06 59.8362 1020.33 54.0764C1018.44 60.6302 1012.89 66.2563 1008.14 70.6758Z" fill="#093F28"/>
<path d="M963.167 65.727C962.788 64.7481 961.975 63.9541 961.03 63.5215C960.273 63.1744 959.314 63.0947 958.508 63.2996C957.535 63.5471 956.721 64.011 956.058 64.7737C955.395 65.5364 955.13 66.5694 955.219 67.5597C955.307 68.5842 955.913 69.5034 956.664 70.1693C957.959 71.3161 959.965 71.4072 961.297 70.377C961.929 70.1038 962.504 69.6514 962.854 69.0936C963.164 68.6013 963.403 68.0634 963.434 67.4686C963.469 66.8539 963.389 66.299 963.167 65.727Z" fill="#093F28"/>
<path d="M968.081 58.0092C968.041 57.8527 967.999 57.6962 967.959 57.5397C967.916 57.2693 967.814 57.0245 967.646 56.8083C967.552 56.7144 967.458 56.6205 967.361 56.5294C967.136 56.3587 966.886 56.2562 966.607 56.2221C966.397 56.1879 966.192 56.2078 965.995 56.2818C965.796 56.3216 965.617 56.407 965.457 56.5408C965.29 56.6631 965.161 56.814 965.076 56.999C964.957 57.1726 964.888 57.3632 964.868 57.5767C964.834 57.8556 964.874 58.1259 964.982 58.382C965.05 58.53 965.119 58.678 965.187 58.826C965.253 58.9369 965.318 59.0479 965.383 59.1589C965.5 59.3211 965.651 59.4464 965.827 59.5289C965.935 59.6114 966.058 59.6598 966.194 59.6769H966.206C966.263 59.7082 966.317 59.7394 966.377 59.765C966.51 59.8248 966.647 59.8476 966.792 59.8362C966.932 59.8476 967.065 59.822 967.196 59.7594C967.273 59.7139 967.35 59.6683 967.427 59.6228C967.572 59.5089 967.68 59.3667 967.751 59.1959L967.782 59.1362C967.805 59.0906 967.814 59.0451 967.825 59.0024C967.871 58.9313 967.945 58.8829 967.976 58.8032C968.087 58.5499 968.118 58.2852 968.081 58.0092Z" fill="#093F28"/>
<path d="M971.943 63.7947C971.866 63.6211 971.753 63.476 971.602 63.3593C971.437 63.2312 971.232 63.1515 971.021 63.1373C970.998 63.1373 970.973 63.1345 970.95 63.1317L970.811 63.1231C970.611 63.1004 970.421 63.126 970.236 63.2056C970.153 63.254 970.074 63.3024 969.991 63.3508C969.837 63.4703 969.724 63.6211 969.647 63.8032C969.584 63.9455 969.558 64.0906 969.573 64.2415C969.561 64.3894 969.587 64.5318 969.652 64.6684C969.706 64.805 969.789 64.9217 969.897 65.0127C969.991 65.1237 970.108 65.2034 970.247 65.2575C970.435 65.3343 970.631 65.3571 970.833 65.3286C970.879 65.3258 970.927 65.3228 970.973 65.32C970.996 65.3172 971.021 65.3172 971.044 65.3144C971.249 65.3001 971.445 65.2119 971.607 65.0866C971.758 64.9671 971.869 64.8192 971.943 64.6428C972.006 64.5062 972.031 64.361 972.014 64.2131C972.031 64.0679 972.006 63.9285 971.943 63.7947Z" fill="#093F28"/>
<path d="M841.849 112.48C841.467 111.738 840.949 111.197 840.215 110.807C839.757 110.562 839.247 110.508 838.738 110.503C837.89 110.13 836.922 110.01 836.02 110.252C835.391 110.42 834.808 110.648 834.301 111.072C833.798 111.49 833.405 112.011 833.143 112.611C832.662 113.713 832.719 114.982 833.14 116.086C833.562 117.193 834.467 118.121 835.556 118.573C836.718 119.054 838.015 118.997 839.179 118.57C840.346 118.143 841.288 117.23 841.82 116.12C842.338 115.039 842.403 113.565 841.849 112.48Z" fill="#093F28"/>
<path d="M844.367 104.879C844.338 104.834 844.313 104.788 844.276 104.748C844.239 104.709 844.202 104.672 844.168 104.632C844.244 104.76 844.318 104.888 844.395 105.016C844.284 104.808 844.179 104.592 844.028 104.41C843.909 104.293 843.792 104.173 843.672 104.057C843.524 103.971 843.379 103.889 843.231 103.804C843.061 103.758 842.893 103.715 842.722 103.67C842.545 103.673 842.372 103.673 842.195 103.676L841.706 103.815C841.561 103.9 841.418 103.986 841.276 104.071C841.16 104.191 841.04 104.307 840.923 104.427C840.753 104.632 840.647 104.865 840.605 105.121C840.536 105.289 840.516 105.46 840.542 105.639C840.522 105.815 840.545 105.983 840.616 106.146C840.642 106.316 840.707 106.47 840.812 106.607C840.881 106.763 840.983 106.894 841.117 106.999C841.225 107.136 841.356 107.236 841.515 107.304C841.655 107.409 841.814 107.475 841.99 107.497C842.158 107.566 842.329 107.586 842.508 107.56C842.767 107.58 843.018 107.531 843.26 107.418C843.302 107.403 843.345 107.389 843.385 107.366C843.422 107.344 843.462 107.315 843.504 107.301C843.439 107.321 843.374 107.338 843.308 107.358C843.467 107.315 843.63 107.281 843.778 107.207C844.02 107.102 844.222 106.942 844.384 106.735C844.515 106.575 844.597 106.396 844.631 106.197C844.7 106.003 844.717 105.801 844.677 105.594C844.634 105.326 844.532 105.09 844.367 104.879Z" fill="#093F28"/>
<path d="M851.16 109.014C851.126 108.784 851.035 108.573 850.892 108.388C850.813 108.308 850.73 108.229 850.651 108.149C850.46 108.004 850.244 107.916 850.005 107.887C849.822 107.859 849.649 107.876 849.481 107.938C849.31 107.973 849.157 108.047 849.023 108.16C848.878 108.263 848.77 108.394 848.696 108.553C848.593 108.701 848.533 108.866 848.519 109.048C848.522 109.168 848.522 109.287 848.522 109.407C848.556 109.637 848.647 109.848 848.789 110.033C848.869 110.113 848.952 110.192 849.031 110.272C849.222 110.417 849.438 110.505 849.677 110.534C849.859 110.562 850.033 110.545 850.201 110.483C850.372 110.448 850.525 110.374 850.659 110.261C850.804 110.155 850.912 110.024 850.986 109.868C851.089 109.72 851.149 109.555 851.163 109.373C851.163 109.25 851.163 109.131 851.16 109.014Z" fill="#093F28"/>
<path d="M816.222 141.06C815.778 139.105 814.296 137.552 812.315 137.145C811.504 136.977 810.533 137.096 809.802 137.495C809.52 137.648 809.307 137.853 809.076 138.047C808.829 138.206 808.596 138.371 808.382 138.576C808.115 138.767 807.861 138.974 807.639 139.216C806.962 139.951 806.621 140.958 806.572 141.974C806.567 142.082 806.575 142.193 806.578 142.301C806.586 142.66 806.632 143.001 806.723 143.343C806.74 143.403 806.766 143.462 806.786 143.522C806.86 143.753 806.905 143.994 807.019 144.205C807.065 144.288 807.133 144.347 807.181 144.427C807.563 145.107 808.089 145.702 808.721 146.1C809.663 146.695 810.656 146.985 811.774 146.906C812.662 146.843 813.516 146.462 814.233 145.949C815.727 144.891 816.635 142.876 816.222 141.06Z" fill="#093F28"/>
<path d="M821.806 146.661V146.652C821.794 146.564 821.769 146.479 821.734 146.396C821.709 146.22 821.64 146.061 821.529 145.918C821.458 145.756 821.353 145.619 821.211 145.511C821.1 145.372 820.963 145.267 820.798 145.198C820.653 145.087 820.488 145.022 820.306 144.999C820.044 144.905 819.776 144.885 819.498 144.936C819.327 144.985 819.159 145.033 818.991 145.082C818.843 145.17 818.692 145.258 818.544 145.346C818.422 145.469 818.3 145.594 818.177 145.716C818.089 145.867 818.004 146.021 817.915 146.174C817.87 146.351 817.824 146.527 817.776 146.701C817.779 146.883 817.779 147.065 817.782 147.247C817.83 147.415 817.878 147.586 817.927 147.754C818.015 147.902 818.103 148.053 818.191 148.201C818.314 148.323 818.439 148.445 818.561 148.568C818.712 148.656 818.866 148.741 819.02 148.829C819.278 148.946 819.543 148.992 819.819 148.963C820.001 148.986 820.178 148.96 820.346 148.889C820.522 148.864 820.681 148.795 820.824 148.684C820.986 148.613 821.123 148.508 821.231 148.366C821.37 148.255 821.475 148.118 821.544 147.953C821.7 147.728 821.788 147.475 821.814 147.196C821.834 147.02 821.837 146.837 821.806 146.661Z" fill="#093F28"/>
<path d="M826.131 141.687C826.117 141.59 826.077 141.502 826.017 141.422C825.978 141.331 825.921 141.257 825.841 141.197C825.773 141.117 825.682 141.075 825.591 141.024C825.551 140.987 825.519 140.938 825.474 140.91C825.371 140.85 825.269 140.793 825.167 140.733C824.993 140.654 824.816 140.625 824.631 140.642C824.509 140.628 824.392 140.645 824.279 140.693C824.105 140.728 823.948 140.801 823.809 140.918C823.752 140.955 823.698 140.992 823.641 141.029C823.473 141.163 823.348 141.328 823.266 141.524C823.194 141.678 823.169 141.84 823.183 142.005C823.172 142.168 823.2 142.324 823.271 142.472C823.357 142.668 823.485 142.831 823.653 142.959C823.709 142.996 823.764 143.033 823.82 143.072C823.923 143.132 824.025 143.189 824.125 143.249C824.299 143.326 824.475 143.357 824.66 143.34C824.782 143.354 824.899 143.337 825.013 143.289C825.186 143.255 825.343 143.181 825.482 143.064C825.511 143.047 825.528 143.016 825.554 142.993C825.616 142.956 825.679 142.919 825.744 142.879C825.813 142.811 825.881 142.742 825.946 142.674C825.995 142.589 826.043 142.506 826.091 142.421C826.157 142.279 826.182 142.131 826.165 141.977C826.185 141.877 826.171 141.781 826.131 141.687Z" fill="#093F28"/>
<path d="M743.114 120.85C742.443 119.478 741.091 118.485 739.546 118.377C738.14 118.277 736.728 118.861 735.932 120.019C735.251 120.671 734.753 121.487 734.603 122.463C734.369 123.969 735.109 125.42 736.236 126.373C737.226 127.213 738.746 127.683 740.032 127.378C740.741 127.21 741.421 126.928 741.959 126.425C742.488 125.927 742.915 125.366 743.185 124.683C743.655 123.482 743.686 122.022 743.114 120.85Z" fill="#093F28"/>
<path d="M749.927 121.129C749.876 120.799 749.748 120.503 749.545 120.238C749.432 120.124 749.315 120.01 749.201 119.896C748.928 119.689 748.621 119.566 748.282 119.524C748.023 119.481 747.775 119.507 747.536 119.598C747.294 119.646 747.075 119.751 746.882 119.914C746.677 120.062 746.523 120.246 746.418 120.471C746.273 120.682 746.187 120.918 746.167 121.177C746.17 121.348 746.17 121.516 746.173 121.686C746.224 122.017 746.352 122.313 746.554 122.577C746.668 122.691 746.785 122.805 746.899 122.919C747.172 123.126 747.479 123.249 747.818 123.294C748.077 123.337 748.325 123.311 748.564 123.22C748.806 123.172 749.025 123.067 749.218 122.904C749.423 122.756 749.577 122.571 749.682 122.347C749.827 122.136 749.913 121.903 749.932 121.641C749.932 121.467 749.93 121.299 749.927 121.129Z" fill="#093F28"/>
<path d="M749.563 111.752C749.517 111.649 749.486 111.541 749.452 111.436C749.403 111.353 749.355 111.274 749.306 111.191C749.238 111.126 749.173 111.057 749.104 110.992L748.854 110.85C748.712 110.787 748.567 110.762 748.416 110.776C748.316 110.764 748.219 110.779 748.128 110.816C748.032 110.83 747.943 110.867 747.867 110.927C747.778 110.966 747.704 111.023 747.645 111.1C747.534 111.194 747.454 111.311 747.4 111.45C747.366 111.555 747.334 111.666 747.289 111.769C747.203 111.98 747.178 112.196 747.209 112.418C747.243 112.631 747.326 112.825 747.457 112.995C747.59 113.166 747.758 113.291 747.958 113.377C748.114 113.448 748.276 113.476 748.441 113.459C748.606 113.471 748.763 113.442 748.914 113.371C749.11 113.286 749.275 113.158 749.406 112.987C749.676 112.64 749.739 112.153 749.563 111.752Z" fill="#093F28"/>
<path d="M672.434 115.613C672.334 115.485 672.203 115.38 672.089 115.263C671.264 114.108 669.912 113.343 668.47 113.317C666.241 113.277 664.007 114.515 663.159 116.646C662.28 118.849 663.182 121.43 665.049 122.825C667.004 124.287 669.776 124.159 671.56 122.472C672.499 121.587 673.142 120.5 673.356 119.216C673.566 117.958 673.208 116.621 672.434 115.613Z" fill="#093F28"/>
<path d="M659.551 118.704C659.54 118.673 659.508 118.656 659.494 118.627C659.471 118.542 659.446 118.456 659.423 118.371C659.332 118.141 659.195 117.947 659.007 117.791C658.905 117.66 658.78 117.566 658.626 117.5C658.603 117.486 658.575 117.486 658.549 117.475L658.285 117.324C658.185 117.278 658.08 117.29 657.977 117.273C657.96 117.27 657.946 117.258 657.929 117.255H657.892L657.898 117.258C657.826 117.253 657.758 117.216 657.684 117.221C657.548 117.204 657.414 117.224 657.289 117.278C657.232 117.287 657.189 117.324 657.138 117.344C657.081 117.361 657.021 117.378 656.964 117.395C656.734 117.486 656.54 117.623 656.384 117.81C656.253 117.913 656.159 118.038 656.093 118.192C656.008 118.314 655.991 118.462 655.948 118.599C655.92 118.65 655.866 118.681 655.843 118.738C655.797 118.912 655.752 119.085 655.706 119.262C655.664 119.623 655.712 119.97 655.854 120.303C655.943 120.451 656.028 120.599 656.116 120.744C656.335 121.023 656.609 121.231 656.936 121.368C657.192 121.484 657.454 121.527 657.727 121.501C657.994 121.521 658.25 121.473 658.498 121.356C658.746 121.259 658.953 121.112 659.121 120.91C659.32 120.739 659.469 120.528 659.562 120.275C659.679 120.019 659.722 119.757 659.696 119.484C659.716 119.208 659.668 118.952 659.551 118.704Z" fill="#093F28"/>
<path d="M671.207 109.051C671.141 108.9 671.013 108.798 670.914 108.675C670.88 108.613 670.874 108.539 670.831 108.479C670.74 108.351 670.624 108.254 670.484 108.192C670.353 108.101 670.208 108.049 670.046 108.035C669.938 108.021 669.838 108.064 669.733 108.081C669.619 108.075 669.511 108.021 669.391 108.038C669.095 108.084 668.828 108.197 668.592 108.382C668.355 108.567 668.179 108.798 668.065 109.077C667.948 109.367 667.911 109.666 667.954 109.976V109.987C668 110.283 668.114 110.548 668.296 110.784C668.481 111.018 668.711 111.194 668.987 111.308C669.275 111.424 669.573 111.461 669.884 111.419C670.18 111.373 670.444 111.259 670.68 111.077L670.692 111.069C670.928 110.884 671.104 110.653 671.218 110.374C671.315 110.158 671.355 109.933 671.332 109.703C671.349 109.478 671.307 109.262 671.207 109.051Z" fill="#093F28"/>
<path d="M680.703 114.1C680.669 113.875 680.584 113.675 680.444 113.496C680.305 113.317 680.129 113.186 679.921 113.098C679.642 112.998 679.645 113.01 679.414 113.012C679.3 112.998 679.189 113.015 679.084 113.061C679.027 113.072 678.976 113.089 678.922 113.106C678.717 113.197 678.543 113.331 678.407 113.508C678.267 113.693 678.182 113.9 678.154 114.131C678.142 114.216 678.131 114.299 678.12 114.384C678.091 114.62 678.122 114.848 678.216 115.067C678.273 115.164 678.33 115.261 678.39 115.357C678.535 115.539 678.711 115.676 678.928 115.764C679.096 115.841 679.269 115.87 679.448 115.853C679.625 115.867 679.793 115.833 679.955 115.756C680.117 115.693 680.254 115.594 680.365 115.463C680.496 115.349 680.592 115.212 680.655 115.044C680.746 114.82 680.775 114.589 680.74 114.347C680.726 114.267 680.715 114.182 680.703 114.1Z" fill="#093F28"/>
<path d="M0.00162149 53.5385C-0.126439 64.2955 7.35227 72.278 14.8168 79.1164C29.0058 92.1159 45.6707 103.157 64.3418 108.402C82.7483 113.573 103.272 112.699 120.167 103.226C120.264 103.305 120.364 103.379 120.461 103.459C120.717 103.678 120.984 103.656 121.186 103.516C138.221 113.064 156.283 120.793 174.866 126.86C169.081 126.237 163.304 125.52 157.53 124.797C126.758 120.946 93.3944 117.458 65.0077 132.899C63.8694 133.516 63.7585 135.056 64.985 135.673C73.8951 140.136 83.6988 142.469 93.605 143.255C111.977 144.712 130.173 141.245 148.178 138.061C158.039 136.316 167.925 134.737 177.923 133.997C182.866 133.633 187.829 133.508 192.778 133.764C196.454 133.955 200.105 134.367 203.754 134.837C229.642 140.742 256.15 143.462 282.701 143.479C281.668 143.667 280.632 143.815 279.605 144.026C262.493 147.535 246.153 153.792 229.366 158.477C220.937 160.827 212.371 162.791 203.668 163.787C199.32 164.285 194.898 164.609 190.518 164.478C186.984 164.373 183.6 163.821 180.219 162.976C179.533 162.603 178.845 162.23 178.167 161.84C177.214 161.294 176.423 162.799 177.22 163.437C185.011 169.675 194.841 172.936 204.633 174.416C223.475 177.262 242.374 173.226 260.043 166.729C269.511 163.249 278.714 159.1 287.889 154.928C296.967 150.799 306.205 146.82 315.058 142.199C338.501 140.372 361.797 136.686 384.731 131.501C386.86 131.021 388.98 130.497 391.103 129.99C378.704 135.258 366.393 140.81 354.355 146.809C347.11 150.42 339.995 154.29 333.089 158.514C329.557 160.674 326.111 162.967 322.736 165.361C320.98 166.607 319.252 167.893 317.545 169.211C317.249 169.439 316.996 169.695 316.723 169.937C315.877 170.403 315.009 170.839 314.181 171.331C313.703 171.613 313.572 172.074 313.641 172.523C313.541 172.555 313.441 172.583 313.342 172.62C311.481 173.278 312.682 175.87 314.483 175.386C319.975 173.912 325.448 172.66 331.085 171.855C336.603 171.069 342.152 170.56 347.702 170.045C357.486 169.14 367.315 168.206 376.848 165.725C384.984 163.608 392.702 160.187 399.782 155.656C406.612 151.285 412.807 145.773 418.018 139.564C420.645 136.433 423.038 133.101 425.152 129.603C427.119 126.351 429.054 122.919 430.121 119.253C430.986 118.983 431.857 118.732 432.722 118.459C440.71 115.932 448.647 113.249 456.533 110.414C464.419 107.583 472.114 104.387 479.846 101.163C480.284 100.98 480.008 100.323 479.567 100.482C475.756 101.857 471.946 103.237 468.072 104.43C460.964 106.621 453.983 109.279 446.931 111.672C443.502 109.174 439.157 107.674 435.153 106.49C430.699 105.172 426.148 104.233 421.553 103.587C403.758 101.097 385.744 102.924 367.87 101.8C359.828 101.293 351.794 100.15 344.076 97.7733C337.115 95.6304 330.755 92.3179 324.745 88.2741C324.554 88.0208 324.352 87.7789 324.167 87.5171C323.794 86.9935 323.262 86.9223 322.804 87.0988C321.788 86.8711 321 88.2086 321.885 89.0709C322.164 89.3412 322.468 89.5831 322.753 89.8449C327.161 95.7129 333.089 100.169 339.537 103.607C345.821 106.957 352.545 109.43 359.301 111.635C366.788 114.077 374.438 116.02 382.184 117.44C390.01 118.875 397.927 119.72 405.878 120.019C409.834 120.167 413.809 120.224 417.776 120.098C416.265 120.505 414.748 120.895 413.257 121.365C410.687 122.173 408.152 123.081 405.633 124.034C394.694 126.925 383.684 129.546 372.588 131.778C360.974 134.114 349.261 135.995 337.497 137.486C337.283 137.392 337.059 137.327 336.814 137.301C336.438 137.264 336.057 137.247 335.678 137.21C334.95 137.136 334.221 137.065 333.496 136.968C332.278 136.806 331.045 136.721 329.83 136.513C321.279 133.124 314.079 127.429 308.057 120.522C296.005 106.698 288.948 89.5063 278.416 74.6257C273.569 67.7759 267.852 61.427 260.988 56.5465C255.137 52.3888 248.287 48.8628 241.082 47.8526C240.467 47.5481 239.858 47.2351 239.226 46.9761C238.506 46.683 237.855 47.5852 238.293 48.1315C238.199 48.4816 238.336 48.8856 238.814 48.971C239.107 49.0222 239.391 49.0934 239.682 49.1475C243.171 51.5635 246.549 54.0507 249.608 57.0331C252.966 60.3086 255.911 64.0024 258.583 67.8499C268.82 82.5853 274.727 99.9418 286.039 113.986C291.304 120.522 297.699 126.14 304.861 130.514C311.219 134.396 318.234 137.537 325.587 138.918C308.578 140.645 291.478 141.428 274.386 141.038C266.295 140.853 258.216 140.375 250.163 139.655C250.177 139.367 250.015 139.04 249.702 138.957C249.343 138.863 248.987 138.775 248.629 138.681C248.606 138.55 248.6 138.425 248.535 138.286C245.424 131.661 241.566 125.392 237.044 119.635C221.102 99.3414 197.425 85.1722 171.787 81.6178C170.563 81.4471 169.704 83.163 170.802 83.9172C176.995 88.1688 182.669 93.092 188.036 98.3368C197.356 107.443 205.982 117.31 216.23 125.42C221.158 129.322 226.446 132.796 232.138 135.486C234.653 136.672 237.328 137.774 240.077 138.61C222.769 136.558 205.618 133.24 188.813 128.499C179.163 125.776 169.641 122.577 160.293 118.937C160.501 118.602 160.555 118.183 160.282 117.708C156.218 110.625 152.017 103.621 147.658 96.7175C132.023 71.9536 114.584 48.4559 95.486 26.256C94.6494 25.2856 92.8935 25.8519 93.0842 27.2349C94.2481 35.7097 96.6357 43.9853 99.9568 51.8624C105.964 66.114 114.897 78.9684 125.313 90.3401C130.711 96.2337 136.494 101.769 142.504 107.033C145.509 109.663 148.571 112.221 151.696 114.706C152.325 115.204 152.951 115.705 153.577 116.203C139.283 110.241 125.435 103.223 112.27 95.0584C106.175 91.2764 100.236 87.2411 94.4616 82.981C92.0057 75.9946 89.0204 69.2017 85.5116 62.6763C73.0499 39.4974 54.4385 19.5514 31.9028 5.89733C31.0604 5.38793 29.5721 5.84898 29.8339 7.06697C31.4133 14.4347 34.0172 21.5577 37.6968 28.1371C40.5426 33.2253 43.9518 38.3079 48.1294 42.4997C50.1898 45.3028 52.3412 48.0063 54.6349 50.6245C67.6885 65.5307 82.8593 78.5785 99.2083 89.8364C98.9437 89.7511 98.6875 89.6542 98.4229 89.5717C90.836 87.1813 83.0301 85.582 75.281 83.8261C66.6725 81.8739 58.1779 79.4636 49.8568 76.5153C41.5158 73.5614 33.3598 70.0924 25.4486 66.131C17.395 62.0986 9.77403 57.4372 2.13311 52.6876C1.40175 52.238 0.0130046 52.4287 0.00162149 53.5385ZM34.7343 14.9924C37.1134 18.5041 39.5238 21.993 42.0082 25.4307C49.0486 35.1832 56.5757 44.5857 64.4671 53.6637C68.4141 58.2056 72.4865 62.6422 76.6413 66.9962C79.3676 69.8534 82.0966 72.8272 84.968 75.616C82.9674 74.0082 80.9868 72.3718 79.0431 70.6928C69.063 62.0587 60.1329 52.477 51.2996 42.716C47.1476 37.7074 43.0895 32.7301 39.945 26.9646C37.859 23.1313 36.1316 19.1188 34.7343 14.9924ZM89.5526 77.9525C87.5662 75.7015 85.4006 73.5927 83.3346 71.4185C81.001 68.9654 78.7016 66.4811 76.4193 63.9826C61.2855 47.4343 47.4578 29.597 35.0189 10.9287C39.5636 13.9054 43.9547 17.0955 48.1323 20.5929C66.4534 35.9317 80.7563 55.7725 89.5526 77.9525ZM102.131 42.6277C103.904 45.7439 105.785 48.7946 107.717 51.814C114.931 63.0776 122.788 73.9086 130.922 84.5233C138.15 93.9571 145.62 103.2 152.811 112.662C152.587 112.477 152.359 112.295 152.134 112.107C148.819 109.327 145.526 106.524 142.31 103.63C120.927 84.3867 102.285 60.3627 96.5902 31.6943C96.6756 31.7939 96.7581 31.8963 96.8435 31.9959C96.8264 32.1468 96.8321 32.3062 96.8833 32.4684C97.4838 34.3494 98.5509 36.0996 99.4815 37.8383C100.347 39.4462 101.229 41.0398 102.131 42.6277ZM152.891 110.867C149.704 106.376 146.477 101.911 143.201 97.483C135.287 86.7715 127.111 76.245 119.447 65.3485C115.628 59.9159 111.957 54.3922 108.534 48.7006C106.795 45.8093 105.11 42.8839 103.471 39.9357C103.443 39.8873 103.42 39.8361 103.392 39.7848C105.313 42.1127 107.219 44.4519 109.095 46.8168C125.173 67.1157 139.812 88.5273 152.891 110.867ZM255.362 59.8874C258.586 62.6734 261.685 65.6017 264.585 68.8175C270.359 75.2233 275.24 82.2808 279.463 89.7908C283.805 97.5086 287.679 105.48 292.516 112.913C296.404 118.883 300.92 124.512 306.421 129.063C305.103 128.277 303.8 127.458 302.531 126.57C295.453 121.629 289.44 115.46 284.511 108.388C279.235 100.815 275.134 92.4972 270.86 84.3412C266.921 76.8284 262.804 69.361 257.596 62.6364C256.882 61.7144 256.127 60.7981 255.362 59.8874ZM323.049 136.433C320.658 135.736 318.316 134.877 316.091 133.735C312.215 131.746 308.683 129.122 305.49 126.166C292.909 114.515 286.899 97.9071 278.134 83.5558C273.845 76.5324 268.825 69.9729 263.114 64.0479C258.939 59.7195 254.38 55.5448 249.468 51.9591C250.342 52.3148 251.213 52.6819 252.069 53.1031C256.238 55.1606 259.981 57.8584 263.481 60.9006C277.343 72.9467 285.163 89.936 294.534 105.349C301.779 117.264 310.82 129.29 323.049 136.433ZM443.758 112.734C440.161 112.685 436.51 113.149 432.93 113.303C428.613 113.488 424.287 113.573 419.967 113.451C404.913 113.021 389.905 111.439 375.178 108.246C369.461 107.008 363.815 105.508 358.223 103.809C370.969 105.443 383.994 104.865 396.82 104.768C405.539 104.703 414.282 104.91 422.921 106.197C427.142 106.826 431.339 107.697 435.423 108.946C438.63 109.928 441.718 111.265 444.871 112.375C444.803 112.398 444.737 112.421 444.669 112.443C444.367 112.54 444.063 112.634 443.758 112.734ZM426.86 118.021C418.923 118.232 411.003 118.408 403.066 117.836C387.859 116.743 372.671 113.829 358.248 108.852C350.579 106.205 342.631 103.029 335.761 98.4449C338.12 99.4551 340.559 100.326 342.898 101.214C346.854 102.714 350.849 104.111 354.89 105.357C369.54 109.876 384.646 112.938 399.905 114.41C407.409 115.132 414.939 115.343 422.475 115.229C426.365 115.17 430.249 115.036 434.131 114.783C435.468 114.697 436.829 114.615 438.189 114.515C434.421 115.71 430.648 116.883 426.86 118.021ZM328.652 167.253C332.924 165.304 337.249 163.468 341.603 161.707C357.036 155.463 372.776 149.976 388.066 143.377C395.531 140.155 402.938 136.715 409.996 132.668C413.365 130.739 416.681 128.707 419.911 126.555C422.91 124.555 425.89 122.492 428.505 120.004C426.501 123.402 424.714 126.911 422.477 130.184C419.93 133.909 417.07 137.406 413.943 140.662C402.284 152.805 387.215 160.75 370.75 164.026C361.25 165.916 351.566 166.579 341.942 167.506C335.613 168.115 329.124 168.804 322.807 170.104C324.739 169.126 326.677 168.155 328.652 167.253ZM403.035 128.172C406.928 126.612 410.864 125.158 414.871 123.917C417.073 123.234 419.299 122.617 421.547 122.093C422.469 121.877 423.414 121.718 424.341 121.521C421.977 123.124 419.64 124.768 417.213 126.279C413.345 128.687 409.347 130.867 405.303 132.964C390.949 140.409 375.75 146.004 360.59 151.559C352.736 154.436 344.893 157.335 337.161 160.531C334.91 161.462 332.642 162.409 330.377 163.38C332.534 162.039 334.708 160.722 336.899 159.439C350.875 151.265 365.605 144.447 380.4 137.913C387.913 134.595 395.414 131.225 403.035 128.172ZM202.337 171.143C198.91 170.486 195.572 169.524 192.305 168.366C198.111 169.157 204.041 169.217 209.849 168.872C226.913 167.859 243.401 162.913 259.545 157.603C267.704 154.919 275.834 152.133 284.082 149.72C288.342 148.474 292.644 147.398 296.981 146.45C299.568 145.887 302.206 145.48 304.824 145.01C297.983 147.933 291.204 151.032 284.423 154.031C266.569 161.923 248.179 169.698 228.614 171.949C219.875 172.953 210.988 172.802 202.337 171.143ZM295.154 144.353C290.652 145.488 286.185 146.809 281.745 148.164C265.427 153.146 249.483 159.416 232.858 163.357C224.551 165.326 216.084 166.738 207.547 167.108C202.069 167.347 196.653 166.997 191.266 166.285C195.837 166.47 200.421 166.14 204.955 165.591C222.51 163.465 239.354 157.603 256.213 152.54C264.878 149.939 273.623 147.555 282.545 145.992C286.725 145.261 290.926 144.683 295.154 144.353ZM244.619 137.145C242.729 135.932 240.823 134.74 238.99 133.437C236.233 131.473 233.592 129.359 231.042 127.133C222.046 119.285 214.038 110.369 205.285 102.255C200.968 98.2542 196.471 94.5121 191.534 91.2849C189.186 89.7511 186.762 88.3253 184.257 87.0589C184.004 86.9309 183.745 86.8056 183.489 86.6776C186.343 87.463 189.166 88.368 191.938 89.4237C214.662 98.0806 233.916 115.283 244.619 137.145ZM240.222 136.351C239.932 136.254 239.636 136.171 239.346 136.069C236.176 134.951 233.108 133.545 230.163 131.931C211.278 121.581 198.472 103.895 182.558 89.8962C183.119 90.1523 183.68 90.4055 184.232 90.6873C187.123 92.1728 189.889 93.8774 192.561 95.7243C202.194 102.386 210.538 110.517 218.939 118.621C223.185 122.719 227.584 126.686 232.203 130.363C234.744 132.387 237.411 134.509 240.222 136.351ZM149.098 126.612C138.218 126.22 127.319 126.319 116.457 127.008C101.641 127.947 86.7523 129.78 72.182 132.762C77.828 130.195 83.7187 128.22 89.803 126.917C109.493 122.702 129.311 124.242 149.098 126.612ZM181.958 130.989C179.764 131.066 177.584 131.188 175.435 131.351C156.258 132.802 137.558 137.731 118.446 139.717C102.538 141.371 85.9925 141.058 71.0465 135.067C79.0744 133.391 87.1138 131.883 95.2498 130.804C111.348 128.673 127.618 127.754 143.853 128.061C151.921 128.215 159.983 128.661 168.016 129.413C172.678 129.848 177.319 130.409 181.958 130.989ZM112.897 98.6355C108.927 98.6156 104.96 98.6897 100.99 98.5474C96.1463 98.3738 91.2999 98.0266 86.482 97.4916C69.709 95.6361 52.8107 91.6577 37.5374 84.3526C24.9107 78.3139 13.7638 69.4549 5.54235 58.1373C12.247 62.5312 19.3415 66.4299 26.51 69.916C42.3212 77.611 58.9889 83.2171 76.1717 86.8995C86.8093 89.179 98.2607 91.2622 108.36 95.8837C109.857 96.8285 111.383 97.7192 112.897 98.6355ZM3.27712 59.7708C7.54578 65.5306 12.6226 70.5591 18.3284 74.9643C31.3991 85.0526 46.9683 91.376 62.9104 95.2775C71.6242 97.4119 80.4973 98.8376 89.4388 99.5775C97.6375 100.255 106.192 100.582 114.402 99.5491C115.367 100.124 116.314 100.733 117.282 101.296C108.716 105.747 99.2482 108.078 89.6038 108.562C70.981 109.492 52.7367 103.28 37.1646 93.3538C29.407 88.4078 22.1958 82.6338 15.4627 76.3702C10.7131 71.9479 5.16956 66.3218 3.27712 59.7708Z" fill="#093F28"/>
<path d="M60.4401 71.4186C60.8186 70.4396 61.6325 69.6457 62.5773 69.2131C63.3343 68.8659 64.2933 68.7863 65.0987 68.9912C66.0719 69.2387 66.8858 69.7026 67.5489 70.4653C68.212 71.2279 68.4766 72.261 68.3884 73.2513C68.3002 74.2758 67.694 75.195 66.9427 75.8609C65.6479 77.0077 63.6416 77.0988 62.3098 76.0686C61.678 75.7954 61.1032 75.343 60.7532 74.7852C60.443 74.2929 60.2039 73.755 60.1726 73.1602C60.1385 72.5455 60.2182 71.9906 60.4401 71.4186Z" fill="#093F28"/>
<path d="M55.5259 63.7008C55.5657 63.5442 55.6055 63.3878 55.6482 63.2313C55.6881 62.9609 55.7934 62.7161 55.9613 62.4999C56.0552 62.4059 56.1491 62.3121 56.2458 62.221C56.4707 62.0502 56.7211 61.9478 57 61.9136C57.2106 61.8795 57.4154 61.8994 57.6118 61.9734C57.811 62.0132 57.9903 62.0986 58.1497 62.2324C58.3176 62.3547 58.4456 62.5056 58.531 62.6906C58.6505 62.8642 58.7188 63.0548 58.7359 63.2683C58.77 63.5472 58.7302 63.8175 58.6221 64.0736C58.5538 64.2216 58.4855 64.3696 58.4172 64.5176C58.3517 64.6285 58.2863 64.7395 58.2208 64.8505C58.1041 65.0127 57.9533 65.138 57.7768 65.2205C57.6687 65.303 57.5463 65.3514 57.4097 65.3685H57.3984C57.3415 65.3998 57.2874 65.431 57.2276 65.4566C57.0939 65.5164 56.9573 65.5392 56.8121 65.5278C56.6727 65.5392 56.5389 65.5136 56.408 65.451C56.3312 65.4054 56.2544 65.3599 56.1775 65.3144C56.0324 65.2005 55.9243 65.0583 55.8531 64.8875L55.8218 64.8278C55.799 64.7822 55.7905 64.7367 55.7791 64.694C55.7336 64.6229 55.6596 64.5745 55.6283 64.4948C55.5202 64.2415 55.486 63.9768 55.5259 63.7008Z" fill="#093F28"/>
<path d="M51.6638 69.4863C51.7406 69.3127 51.8544 69.1675 52.0024 69.0509C52.1675 68.9228 52.3724 68.8431 52.583 68.8289C52.6057 68.8289 52.6285 68.8261 52.6541 68.8232L52.7936 68.8147C52.9928 68.792 53.1834 68.8176 53.3684 68.8972C53.4509 68.9456 53.5306 68.994 53.6131 69.0424C53.7668 69.1619 53.8807 69.3127 53.9575 69.4948C54.0201 69.6371 54.0457 69.7822 54.0315 69.933C54.0429 70.081 54.0144 70.2234 53.9518 70.36C53.8977 70.4966 53.8152 70.6133 53.7042 70.7043C53.6103 70.8153 53.4936 70.895 53.3542 70.9491C53.1664 71.0259 52.97 71.0486 52.768 71.0202C52.7224 71.0173 52.674 71.0144 52.6285 71.0116C52.6057 71.0087 52.583 71.0088 52.5574 71.0059C52.3525 70.9917 52.1561 70.9035 51.9939 70.7782C51.8431 70.6587 51.7321 70.5108 51.6581 70.3344C51.5955 70.1978 51.5699 70.0526 51.587 69.9046C51.5727 69.7595 51.6012 69.6201 51.6638 69.4863Z" fill="#093F28"/>
<path d="M181.759 118.172C182.137 117.429 182.658 116.888 183.392 116.499C183.85 116.254 184.36 116.2 184.869 116.194C185.717 115.821 186.685 115.702 187.587 115.944C188.216 116.112 188.799 116.339 189.306 116.763C189.809 117.182 190.202 117.702 190.464 118.303C190.945 119.404 190.888 120.673 190.467 121.778C190.046 122.885 189.141 123.812 188.051 124.265C186.89 124.746 185.592 124.689 184.428 124.262C183.261 123.835 182.319 122.922 181.787 121.812C181.269 120.73 181.204 119.256 181.759 118.172Z" fill="#093F28"/>
<path d="M179.237 110.571C179.266 110.525 179.292 110.48 179.329 110.44C179.365 110.4 179.403 110.363 179.437 110.323C179.36 110.451 179.286 110.579 179.209 110.707C179.32 110.5 179.425 110.283 179.576 110.101C179.696 109.985 179.812 109.865 179.932 109.748C180.08 109.663 180.225 109.58 180.373 109.495C180.544 109.45 180.712 109.407 180.882 109.361C181.059 109.364 181.232 109.364 181.409 109.367L181.898 109.506C182.043 109.592 182.186 109.677 182.331 109.763C182.448 109.882 182.567 109.999 182.684 110.118C182.854 110.323 182.96 110.557 183.002 110.813C183.071 110.981 183.091 111.151 183.065 111.331C183.085 111.507 183.062 111.675 182.994 111.837C182.968 112.008 182.903 112.162 182.798 112.298C182.729 112.455 182.627 112.586 182.49 112.691C182.385 112.828 182.251 112.927 182.092 112.995C181.949 113.101 181.793 113.166 181.617 113.189C181.449 113.257 181.278 113.277 181.099 113.252C180.837 113.271 180.586 113.223 180.347 113.109C180.305 113.095 180.262 113.081 180.222 113.058C180.185 113.035 180.145 113.007 180.103 112.993C180.168 113.012 180.233 113.03 180.299 113.049C180.14 113.007 179.977 112.973 179.829 112.899C179.587 112.793 179.385 112.634 179.223 112.426C179.092 112.267 179.01 112.088 178.976 111.888C178.907 111.695 178.89 111.493 178.93 111.285C178.973 111.018 179.075 110.781 179.237 110.571Z" fill="#093F28"/>
<path d="M172.447 114.706C172.481 114.475 172.573 114.265 172.715 114.08C172.795 114 172.877 113.92 172.957 113.841C173.147 113.695 173.364 113.607 173.603 113.579C173.785 113.55 173.958 113.567 174.126 113.63C174.297 113.664 174.451 113.738 174.585 113.852C174.73 113.954 174.838 114.085 174.912 114.245C175.014 114.393 175.074 114.558 175.088 114.74C175.085 114.859 175.085 114.979 175.083 115.098C175.048 115.329 174.957 115.539 174.815 115.724C174.735 115.804 174.653 115.884 174.573 115.964C174.382 116.109 174.166 116.197 173.927 116.225C173.745 116.254 173.571 116.237 173.404 116.174C173.233 116.14 173.079 116.066 172.945 115.952C172.8 115.847 172.692 115.716 172.618 115.559C172.516 115.411 172.456 115.246 172.442 115.064C172.444 114.942 172.444 114.822 172.447 114.706Z" fill="#093F28"/>
<path d="M209.371 151.647C210.089 152.156 210.942 152.54 211.83 152.603C212.949 152.68 213.942 152.392 214.884 151.798C215.515 151.399 216.042 150.804 216.423 150.124C216.472 150.045 216.54 149.985 216.586 149.902C216.702 149.692 216.745 149.45 216.819 149.219C216.839 149.16 216.864 149.1 216.881 149.04C216.975 148.699 217.018 148.357 217.027 147.998C217.029 147.89 217.041 147.779 217.032 147.671C216.984 146.655 216.642 145.648 215.965 144.914C215.74 144.672 215.49 144.461 215.222 144.273C215.009 144.068 214.776 143.903 214.528 143.744C214.297 143.551 214.084 143.346 213.802 143.192C213.071 142.794 212.101 142.674 211.289 142.842C209.309 143.249 207.826 144.803 207.382 146.758C206.972 148.568 207.88 150.582 209.371 151.647Z" fill="#093F28"/>
<path d="M201.801 152.352V152.344C201.813 152.256 201.838 152.17 201.872 152.088C201.898 151.911 201.966 151.752 202.077 151.61C202.148 151.448 202.254 151.311 202.393 151.203C202.504 151.063 202.641 150.958 202.806 150.89C202.951 150.779 203.116 150.713 203.298 150.691C203.56 150.597 203.827 150.577 204.106 150.628C204.274 150.676 204.445 150.725 204.613 150.773C204.761 150.861 204.912 150.95 205.06 151.038C205.182 151.16 205.304 151.285 205.427 151.408C205.515 151.559 205.603 151.712 205.689 151.866C205.734 152.042 205.78 152.219 205.825 152.392C205.822 152.574 205.822 152.757 205.82 152.939C205.771 153.107 205.723 153.277 205.674 153.445C205.586 153.593 205.498 153.744 205.41 153.892C205.287 154.014 205.162 154.137 205.04 154.259C204.886 154.347 204.735 154.433 204.582 154.521C204.323 154.638 204.058 154.683 203.782 154.655C203.6 154.678 203.423 154.652 203.255 154.581C203.079 154.555 202.92 154.487 202.777 154.376C202.615 154.305 202.479 154.199 202.37 154.057C202.231 153.946 202.126 153.81 202.057 153.645C201.901 153.42 201.813 153.166 201.787 152.888C201.773 152.711 201.77 152.529 201.801 152.352Z" fill="#093F28"/>
<path d="M197.476 147.378C197.49 147.281 197.53 147.193 197.59 147.113C197.63 147.022 197.69 146.948 197.766 146.889C197.835 146.809 197.926 146.766 198.017 146.715C198.057 146.678 198.085 146.63 198.133 146.601C198.236 146.541 198.338 146.484 198.438 146.425C198.612 146.345 198.788 146.317 198.973 146.334C199.095 146.319 199.212 146.337 199.326 146.385C199.499 146.419 199.656 146.493 199.795 146.61C199.852 146.647 199.906 146.684 199.963 146.721C200.131 146.854 200.256 147.02 200.339 147.216C200.41 147.37 200.436 147.532 200.419 147.697C200.43 147.859 200.402 148.016 200.33 148.164C200.245 148.36 200.117 148.522 199.949 148.65C199.892 148.687 199.838 148.724 199.781 148.764C199.679 148.824 199.576 148.881 199.477 148.94C199.303 149.017 199.127 149.049 198.942 149.031C198.819 149.046 198.703 149.029 198.589 148.98C198.415 148.946 198.259 148.872 198.119 148.755C198.091 148.738 198.074 148.707 198.048 148.684C197.986 148.647 197.923 148.61 197.857 148.571C197.789 148.502 197.721 148.434 197.655 148.366C197.607 148.28 197.559 148.198 197.51 148.112C197.445 147.97 197.419 147.822 197.436 147.668C197.422 147.569 197.436 147.472 197.476 147.378Z" fill="#093F28"/>
<path d="M280.425 130.375C280.692 131.058 281.119 131.621 281.648 132.116C282.186 132.62 282.866 132.902 283.575 133.07C284.858 133.374 286.378 132.902 287.371 132.065C288.498 131.112 289.238 129.66 289.005 128.155C288.854 127.179 288.356 126.362 287.676 125.71C286.879 124.552 285.47 123.969 284.062 124.068C282.516 124.177 281.165 125.17 280.493 126.541C279.921 127.714 279.952 129.174 280.425 130.375Z" fill="#093F28"/>
<path d="M273.68 126.82C273.731 126.49 273.86 126.194 274.062 125.929C274.175 125.816 274.292 125.702 274.406 125.588C274.679 125.38 274.986 125.258 275.325 125.215C275.584 125.173 275.832 125.198 276.071 125.289C276.313 125.338 276.532 125.443 276.725 125.605C276.93 125.753 277.084 125.938 277.189 126.163C277.334 126.373 277.42 126.61 277.44 126.869C277.437 127.039 277.437 127.207 277.434 127.378C277.383 127.708 277.255 128.004 277.053 128.269C276.939 128.383 276.822 128.496 276.708 128.61C276.435 128.818 276.128 128.94 275.789 128.986C275.53 129.029 275.282 129.003 275.043 128.912C274.801 128.863 274.582 128.758 274.389 128.596C274.184 128.448 274.03 128.263 273.925 128.038C273.78 127.828 273.694 127.594 273.675 127.332C273.675 127.159 273.677 126.991 273.68 126.82Z" fill="#093F28"/>
<path d="M274.045 117.443C274.09 117.341 274.121 117.233 274.156 117.128C274.204 117.045 274.252 116.965 274.301 116.883C274.369 116.817 274.434 116.749 274.503 116.684L274.753 116.541C274.896 116.479 275.041 116.453 275.191 116.467C275.291 116.456 275.388 116.47 275.479 116.507C275.576 116.521 275.661 116.558 275.741 116.618C275.829 116.658 275.903 116.715 275.963 116.792C276.074 116.886 276.153 117.002 276.207 117.142C276.244 117.247 276.273 117.358 276.318 117.46C276.404 117.671 276.429 117.887 276.398 118.109C276.364 118.323 276.281 118.516 276.151 118.687C276.017 118.858 275.849 118.983 275.65 119.068C275.493 119.139 275.331 119.168 275.166 119.151C275.001 119.162 274.844 119.134 274.693 119.063C274.497 118.977 274.332 118.849 274.201 118.678C273.931 118.331 273.865 117.845 274.045 117.443Z" fill="#093F28"/>
<path d="M351.174 121.305C351.271 121.177 351.404 121.072 351.518 120.955C352.343 119.8 353.695 119.034 355.138 119.008C357.366 118.969 359.6 120.206 360.451 122.338C361.33 124.541 360.428 127.122 358.561 128.516C356.606 129.979 353.835 129.851 352.05 128.163C351.111 127.278 350.468 126.191 350.255 124.908C350.041 123.65 350.4 122.312 351.174 121.305Z" fill="#093F28"/>
<path d="M364.057 124.396C364.068 124.364 364.099 124.347 364.114 124.319C364.136 124.233 364.162 124.148 364.185 124.063C364.276 123.832 364.412 123.639 364.6 123.482C364.703 123.351 364.828 123.257 364.982 123.192C365.004 123.178 365.036 123.178 365.058 123.166L365.323 123.015C365.423 122.97 365.528 122.981 365.63 122.964C365.647 122.961 365.662 122.95 365.679 122.947H365.719L365.713 122.95C365.784 122.944 365.852 122.907 365.926 122.913C366.063 122.896 366.197 122.916 366.322 122.97C366.379 122.978 366.422 123.015 366.473 123.035C366.53 123.052 366.589 123.069 366.646 123.086C366.877 123.178 367.07 123.314 367.227 123.502C367.358 123.604 367.452 123.73 367.517 123.883C367.6 124.006 367.62 124.154 367.662 124.29C367.691 124.341 367.745 124.373 367.768 124.43C367.813 124.603 367.859 124.777 367.904 124.953C367.947 125.315 367.899 125.662 367.756 125.995C367.668 126.143 367.58 126.291 367.494 126.436C367.275 126.715 367.002 126.923 366.675 127.059C366.419 127.176 366.157 127.219 365.884 127.193C365.616 127.213 365.36 127.164 365.112 127.048C364.865 126.951 364.657 126.803 364.489 126.601C364.29 126.43 364.142 126.22 364.048 125.966C363.931 125.71 363.889 125.449 363.914 125.175C363.889 124.899 363.94 124.643 364.057 124.396Z" fill="#093F28"/>
<path d="M352.397 114.743C352.463 114.592 352.591 114.489 352.69 114.367C352.724 114.304 352.73 114.23 352.773 114.171C352.864 114.043 352.981 113.946 353.12 113.883C353.251 113.792 353.396 113.741 353.558 113.727C353.666 113.712 353.766 113.755 353.871 113.772C353.985 113.766 354.093 113.712 354.21 113.73C354.506 113.775 354.773 113.889 355.01 114.074C355.246 114.259 355.422 114.489 355.536 114.768C355.653 115.058 355.69 115.357 355.647 115.668V115.679C355.602 115.975 355.488 116.24 355.306 116.476C355.121 116.709 354.89 116.885 354.614 116.999C354.327 117.116 354.028 117.153 353.718 117.11C353.422 117.065 353.157 116.951 352.921 116.769L352.909 116.76C352.673 116.575 352.497 116.345 352.383 116.066C352.283 115.85 352.246 115.625 352.269 115.394C352.258 115.169 352.298 114.953 352.397 114.743Z" fill="#093F28"/>
<path d="M342.901 119.791C342.935 119.566 343.021 119.367 343.16 119.188C343.299 119.008 343.473 118.878 343.684 118.789C343.963 118.69 343.96 118.701 344.19 118.704C344.304 118.69 344.415 118.707 344.52 118.752C344.577 118.764 344.631 118.781 344.683 118.798C344.887 118.889 345.061 119.023 345.198 119.199C345.337 119.384 345.422 119.592 345.451 119.822C345.462 119.908 345.474 119.99 345.485 120.076C345.514 120.312 345.482 120.54 345.388 120.759C345.331 120.855 345.274 120.952 345.215 121.049C345.072 121.231 344.893 121.368 344.677 121.456C344.509 121.533 344.335 121.561 344.156 121.544C343.98 121.558 343.812 121.524 343.65 121.447C343.487 121.385 343.351 121.285 343.24 121.154C343.109 121.04 343.012 120.904 342.949 120.736C342.858 120.511 342.83 120.281 342.864 120.039C342.881 119.959 342.89 119.874 342.901 119.791Z" fill="#093F28"/>
<path d="M552.624 75.8495C548.409 76.8114 544.348 78.3225 540.58 80.4512C538.784 81.4671 537.049 82.5912 535.407 83.8433C534.655 84.4153 533.844 85.0215 533.073 85.6732C533.463 84.4495 533.81 83.2088 534.098 81.9509C536.758 70.2975 534.217 58.0606 527.643 48.1402C523.998 42.6421 519.214 37.8812 513.252 34.9813C512.891 34.8049 512.606 35.0638 512.521 35.3797C512.259 35.2943 511.972 35.3086 511.798 35.596C510.682 37.4401 509.863 39.3808 509.453 41.4497C508.574 38.8458 507.911 36.1709 507.572 33.4019C507.359 31.6404 505.179 31.7343 504.447 33.0177C493.69 51.908 493.357 75.5479 503.841 94.6203C504.567 95.9408 505.352 97.2072 506.163 98.4508C505.267 97.8588 504.348 97.2953 503.46 96.7119C501.439 95.3829 499.419 94.054 497.398 92.725C493.927 90.4427 490.415 87.9213 486.172 87.4433C484.994 87.3095 484.456 88.5844 485.016 89.4865C488.121 94.4751 492.051 98.9089 496.584 102.643C498.861 104.515 501.291 106.197 503.841 107.674C505.034 108.365 506.254 108.994 507.507 109.572C508.52 110.042 509.715 110.696 510.882 110.736C510.998 111.026 511.317 111.245 511.718 111.126C512.245 110.969 512.76 110.779 513.281 110.605C513.588 110.597 513.901 110.537 514.211 110.34C514.254 110.315 514.291 110.281 514.334 110.255C522.011 107.523 529.149 103.004 535.461 97.9413C542.572 92.2384 548.762 85.4171 553.785 77.8131C554.322 76.9992 553.75 75.5906 552.624 75.8495ZM536.724 86.0061C538.338 84.7511 540.042 83.6043 541.824 82.6054C542.612 82.1615 543.437 81.7944 544.254 81.4045C543.816 81.8314 543.378 82.2554 542.942 82.6651C540.535 84.9105 538.184 87.2184 535.765 89.4524C532.962 92.0392 530.202 94.6687 527.424 97.2783C528.978 94.9703 530.341 92.5344 531.451 89.9732C531.699 90.0045 531.975 89.9503 532.245 89.7796C533.87 88.7466 535.199 87.1928 536.724 86.0061ZM513.019 36.2989C513.025 36.2846 513.013 36.2733 513.019 36.2591C521.71 43.1231 528.466 51.9251 530.964 62.8927C532.566 69.9189 532.219 77.1729 530.15 83.9515C530.23 83.2885 530.352 82.6338 530.395 81.9651C530.765 76.1768 529.795 70.3771 527.532 65.0356C525.253 59.6571 521.918 54.8306 518.745 49.9558C517.085 47.406 515.483 44.822 514.04 42.1442C513.929 41.9364 512.982 39.8448 512.179 38.7492C512.401 37.9068 512.663 37.0786 513.019 36.2989ZM511.678 41.5152C512.137 42.4543 512.686 43.3423 512.959 43.8773C514.149 46.1994 515.549 48.422 516.949 50.6217C519.931 55.3087 523.13 59.9132 525.341 65.0328C527.606 70.2747 528.588 75.9976 528.19 81.6948C528.104 82.91 527.936 84.1279 527.737 85.3402C527.151 73.5729 520.381 63.4191 514.869 53.3366C513.978 51.7059 513.118 50.0582 512.313 48.3849C512.219 48.0747 512.105 47.7702 512.031 47.4544C511.755 46.2478 511.587 44.9928 511.567 43.752C511.562 43.0121 511.604 42.2637 511.678 41.5152ZM501.892 47.9837C502.265 45.5819 503.249 43.4475 504.12 41.205C504.146 41.1395 504.126 41.0912 504.126 41.0343C504.18 40.9062 504.225 40.7725 504.279 40.6444C503.873 45.0241 504.849 49.8164 505.93 53.6639C507.731 60.0754 510.725 66.0373 513.332 72.1387C517.652 82.2469 520.751 94.5292 514.41 104.111C511.704 101.251 509.362 98.0097 507.347 94.5606C511.562 86.3334 508.679 76.9651 505.694 68.8404C504.006 64.2444 502.287 59.5945 501.764 54.6969C501.528 52.4658 501.547 50.2034 501.892 47.9837ZM506.135 92.3636C502.965 86.3391 500.808 79.7511 499.84 73.2229C498.915 66.9764 499.072 60.619 500.162 54.4237C500.551 58.1858 501.596 61.8398 502.842 65.417C505.802 73.9173 509.786 83.5588 506.135 92.3636ZM496.932 95.3915C498.747 96.5754 500.566 97.762 502.381 98.9459C504.271 100.178 506.106 101.567 508.204 102.415C508.5 102.534 508.753 102.509 508.961 102.409C510.008 103.792 511.095 105.147 512.225 106.479C511.898 106.277 511.573 106.077 511.263 105.872C510.091 105.096 508.927 104.31 507.76 103.525C505.5 102.005 503.241 100.485 500.978 98.9686C498.716 97.4518 496.448 95.9464 494.18 94.4353C492.578 93.3682 490.987 92.2298 489.319 91.2423C489.188 91.0631 489.043 90.8924 488.915 90.7102C491.801 91.7831 494.39 93.7353 496.932 95.3915ZM508.753 107.6C507.472 106.954 506.215 106.251 504.979 105.52C502.561 104.085 500.258 102.452 498.096 100.656C495.938 98.8662 493.966 96.877 492.139 94.7626C492.68 95.1268 493.224 95.494 493.756 95.8611C495.924 97.3551 498.09 98.8519 500.264 100.34C502.438 101.829 504.615 103.311 506.789 104.797C507.95 105.588 509.112 106.379 510.267 107.179C510.688 107.469 511.112 107.799 511.548 108.115C511.391 108.385 511.314 108.673 511.354 108.966C510.597 108.365 509.578 108.018 508.753 107.6ZM517.805 103.135C521.886 94.6516 519.8 83.7608 516.539 75.3487C514.043 68.9115 510.773 62.7875 508.525 56.2535C507.376 52.9126 506.496 49.4635 506.141 45.9404C505.995 44.4976 506.027 43.106 506.106 41.7229C508.79 50.1038 513.696 57.6935 517.885 65.4226C523.022 74.9019 527.575 86.0318 523.363 96.7063C523.17 97.1958 522.894 97.6425 522.672 98.1178C521.209 99.9448 519.55 101.584 517.805 103.135ZM534.021 96.103C530.031 99.3671 525.751 102.105 521.329 104.615C521.508 104.438 521.664 104.242 521.841 104.065C522.034 104.131 522.256 104.111 522.47 103.926C527.381 99.7057 532.199 95.3858 537.014 91.0545C539.385 88.923 541.815 86.857 544.206 84.7426C545.472 83.6242 546.858 82.503 548.159 81.3106C544.026 86.7603 539.331 91.7603 534.021 96.103Z" fill="#093F28"/>
</svg>
